<svg style="height: 1em;" viewBox="0 0 379 124" overflow="hidden"><g transform="translate(-688 -446)" fill="currentColor" stroke="currentColor" stroke-width="0"><path d="M1059.26 446C1058.11 447.298 1057.16 449.246 1056.73 450.382 1053.12 460.526 1049.48 470.643 1045.84 480.733 1039.45 498.343 1034.04 516.197 1031.5 534.862 1031.42 535.484 1031.29 537.296 1031.34 536.701 1031.34 536.647 1031.26 537.215 1031.37 537.675 1032.39 537.594 1033.52 537.513 1034.49 537.378 1044.04 535.917 1053.58 534.429 1063.12 532.968 1064.33 532.806 1065.54 532.752 1067 532.887 1062.88 544.492 1059.8 556.692 1058.02 569 1056.89 568.946 1056.03 568.54 1055.14 568.378 1043.33 566.268 1031.58 564.05 1019.8 562.102 1012.61 560.912 1005.38 560.154 998.187 559.208 997.244 559.099 996.327 558.964 994.979 558.802 994.575 552.797 994.225 546.845 993.767 540.516 989.238 540.516 984.764 540.516 980.02 540.516 978.538 520.146 979.508 500.291 983.955 480.868 990.532 477.974 996.92 475.188 1003.69 472.185 996.57 494.367 993.335 516.981 994.144 540.461 999.4 540.299 1004.58 540.137 1009.94 539.974 1010.07 539.055 1010.24 538.243 1010.26 537.513 1010.91 521.391 1013.5 505.647 1017.86 490.147 1020.99 479.11 1024.82 468.317 1029.16 457.74 1029.56 456.685 1030.61 455.63 1031.61 455.089L1059.26 446ZM934.899 536.025C932.716 524.664 930.883 513.681 930.129 502.239 934.01 502.671 937.649 503.131 941.557 503.618 942.123 514.98 943.336 526.206 945.411 537.486 948.915 537.892 952.285 538.27 955.95 538.622 953.525 520.823 952.392 503.294 954.333 485.44 958.915 484.98 963.443 484.547 968.241 484.06 964.522 508.19 965.95 532.022 969.778 555.799 966.22 556.286 924.657 550.714 919.401 548.847 912.258 526.611 906.706 503.943 905.978 479.922 910.075 480.814 913.956 481.653 917.919 482.519 918.242 500.075 920.91 517.198 924.98 534.24 928.296 534.889 931.369 535.43 934.899 536.025ZM838.594 509.299C840.292 515.088 842.017 520.904 843.769 526.909 839.294 526.26 834.874 525.611 830.265 524.961 826.815 514.357 824.524 503.483 822.88 492.04 831.235 491.878 839.294 492.663 847.569 493.961 846.922 488.767 846.221 483.898 845.575 478.704 837.677 477.568 829.645 477.352 821.289 477.595 821.101 472.943 820.885 468.398 820.642 463.637 833.014 462.88 845.009 463.475 857.246 465.72 857.677 489.498 862.744 512.247 871.45 534.294 871.396 534.402 871.262 534.483 871.154 534.618 868.027 533.509 859.51 530.967 857.03 529.614 855.278 524.556 853.149 516.44 851.424 511.165ZM722.962 545.817C723.851 532.86 724.741 520.038 725.603 507.216 729.565 505.566 733.393 503.97 737.328 502.347 737.49 497.883 737.652 493.636 737.786 489.011 745.522 485.278 753.285 481.572 761.452 477.676 761.452 496.747 761.452 515.304 761.452 533.834 757.409 536.079 727.382 545.439 722.962 545.817ZM737.49 502.428C737.086 511.274 736.681 519.957 736.277 529.019 740.617 527.234 744.66 525.638 748.891 523.933 749.08 514.898 749.323 505.972 749.538 496.639 745.28 498.668 741.398 500.534 737.49 502.428ZM816.545 524.015C807.3 524.907 798.163 525.773 788.702 526.693 788.136 521.878 787.516 516.927 786.923 511.598 782.718 512.707 778.594 513.762 774.093 514.925 773.77 505.512 773.5 496.314 773.177 486.928 777.22 485.684 781.047 484.466 784.982 483.249 784.982 478.813 784.982 474.403 784.982 469.778 792.664 467.532 800.508 465.964 808.702 464.854 808.917 469.534 809.16 473.998 809.322 478.623 801.155 479.786 793.23 481.139 785.225 483.492 785.818 492.771 786.384 501.941 787.004 511.436 795.737 509.732 804.147 508.19 812.88 507.838 814.093 513.357 815.332 518.713 816.545 524.015ZM903.121 529.1C905.008 534.97 906.921 540.732 908.889 546.737 907.838 546.548 907.164 546.467 906.355 546.223 899.725 544.465 893.175 542.274 886.625 540.326 885.493 540.002 885.008 539.974 884.927 539.812 876.059 518.496 870.399 494.637 869.483 471.482 869.429 470.697 869.429 469.94 869.483 469.21 869.483 469.074 869.563 468.912 869.752 468.506 873.768 469.805 877.73 471.157 881.854 472.483 882.447 490.553 885.763 507.919 891.153 525.042 895.116 526.422 899.024 527.72 903.121 529.1ZM689 552.256C690.024 535.998 691.022 520.092 692.046 504.051 695.792 503.24 699.404 502.482 703.366 501.616 702.558 513.925 701.749 525.962 700.887 538.297 704.687 537.54 708.245 536.837 712.207 536.025 711.857 540.299 711.56 544.357 711.21 548.658 703.771 549.821 696.574 551.038 689 552.256Z" fill-rule="evenodd"></path></g></svg>
