<?xml version="1.0" encoding="UTF-8" standalone="yes"?>
<svg xmlns="http://www.w3.org/2000/svg" xmlns:xlink="http://www.w3.org/1999/xlink" width="123.596px" height="108.122px" version="1.1" viewBox="-469.360 848.056 82.397 72.081">
  <!--
	Exported with Concepts: Smarter Sketching
	Version: 2023.03.3 on Android 16
	https://concepts.app/
	-->
  <title>未命名 2</title>
  <desc>Drawing exported from Concepts: Smarter Sketching</desc>
  <defs></defs>
  <g id="钢笔" opacity="1.000">
    <path id="STROKE_add6ad4d-e6aa-446d-a94c-38c268fd228e" opacity="1.000" fill="none" stroke="#000000" stroke-width="1.000" stroke-opacity="1.000" stroke-linecap="round" stroke-linejoin="round" d="M -421.967 851.440 Q -421.967 851.463 -421.967 851.530 Q -422.092 851.453 -422.386 851.080 Q -422.681 850.706 -423.492 850.422 Q -424.302 850.138 -424.892 850.061 Q -425.482 849.985 -425.848 849.997 Q -426.215 850.009 -426.361 850.014 Q -426.506 850.019 -426.379 850.024 Q -426.251 850.029 -427.389 849.991 Q -428.527 849.953 -431.410 850.345 Q -434.294 850.737 -435.389 850.910 Q -436.483 851.082 -438.522 851.415 Q -440.560 851.748 -441.358 851.992 Q -442.157 852.237 -442.600 852.528 Q -443.043 852.819 -443.355 853.034 Q -443.668 853.250 -443.565 853.169 Q -443.462 853.089 -443.943 853.384 Q -444.424 853.680 -444.665 854.004 Q -444.906 854.328 -444.971 854.398 Q -445.037 854.467 -444.997 854.460 Q -444.957 854.453 -445.004 854.505 Q -445.051 854.556 -445.500 855.318 Q -445.949 856.080 -446.201 856.941 Q -446.452 857.802 -446.480 858.357 Q -446.508 858.913 -446.464 859.081 Q -446.419 859.250 -446.419 859.249 Q -446.420 859.248 -446.447 859.218 Q -446.475 859.188 -446.270 859.450 Q -446.065 859.712 -445.472 860.369 Q -444.880 861.027 -444.637 861.329 Q -444.395 861.631 -444.420 861.597 Q -444.445 861.563 -444.463 861.552 Q -444.482 861.540 -443.959 861.946 Q -443.435 862.352 -443.483 862.299 Q -443.031 862.628 -442.552 862.869 Q -442.073 863.110 -441.362 863.435 Q -440.652 863.759 -439.393 863.875 Q -438.134 863.990 -437.413 863.971 Q -436.691 863.952 -436.577 863.957 Q -436.463 863.962 -436.066 863.960 Q -435.669 863.959 -435.551 863.936 Q -435.432 863.914 -435.634 864.005 Q -435.836 864.096 -432.381 863.862 Q -428.926 863.627 -427.152 863.438 Q -425.378 863.248 -424.536 863.147 Q -423.695 863.047 -423.565 863.082 Q -423.434 863.117 -422.420 862.932 Q -421.407 862.747 -420.817 862.627 Q -420.227 862.507 -420.032 862.469 Q -419.838 862.431 -419.567 862.376 Q -419.295 862.322 -419.249 862.296 Q -419.203 862.271 -419.286 862.291 Q -419.370 862.312 -418.497 862.164 Q -417.624 862.015 -417.232 861.905 Q -416.840 861.795 -416.657 861.796 Q -416.474 861.797 -416.587 861.780 Q -416.701 861.764 -416.276 861.854 Q -415.850 861.944 -415.365 861.557 Q -414.879 861.170 -414.513 860.754 Q -414.146 860.337 -414.187 860.382 Q -414.229 860.427 -414.123 860.308 Q -414.017 860.188 -413.813 859.870 Q -413.609 859.552 -413.640 859.517 Q -413.671 859.483 -413.649 859.542 Q -413.628 859.600 -413.605 859.325 Q -413.582 859.051 -413.578 858.929 Q -413.574 858.806 -413.576 858.615 Q -413.578 858.424 -413.577 858.202 Q -413.576 857.980 -413.577 858.060 Q -413.577 858.139 -413.618 858.009 Q -413.660 857.879 -413.580 857.942 Q -413.499 858.005 -413.636 857.286 Q -413.773 856.567 -414.010 856.064 Q -414.247 855.562 -414.361 855.387 Q -414.475 855.212 -414.406 855.290 Q -414.336 855.368 -414.363 855.335 Q -414.390 855.302 -414.682 854.945 Q -414.973 854.587 -414.994 854.576 Q -415.015 854.564 -414.989 854.576 Q -414.963 854.589 -415.066 854.541 Q -415.170 854.493 -415.038 854.549 Q -414.907 854.606 -415.212 854.448 Q -415.517 854.291 -415.792 854.146 Q -416.068 854.001 -416.347 853.867 Q -416.627 853.732 -416.528 853.780 Q -416.430 853.827 -416.540 853.777 Q -416.650 853.727 -416.813 853.680 Q -416.977 853.633 -416.770 853.617 Q -416.563 853.602 -418.607 853.091 Q -420.650 852.579 -421.701 852.327 Q -422.753 852.074 -423.225 852.102 Q -423.697 852.129 -423.980 852.119 Q -424.263 852.110 -424.244 852.116 Q -424.225 852.122 -424.184 852.107 Q -424.143 852.093 -424.708 852.138 Q -425.273 852.182 -425.693 852.282 Q -426.112 852.382 -426.271 852.379 Q -426.430 852.376 -426.530 852.388 Q -426.630 852.399 -426.865 852.402 Q -427.101 852.406 -427.207 852.383 Q -427.313 852.359 -427.576 852.158 "></path>
    <path id="STROKE_0f54bc40-e3e8-4ce5-9a97-fbefdae22e85" opacity="1.000" fill="none" stroke="#000000" stroke-width="1.000" stroke-opacity="1.000" stroke-linecap="round" stroke-linejoin="round" d="M -437.314 864.812 Q -437.123 864.429 -437.134 864.498 Q -437.134 864.509 -437.134 864.184 Q -437.074 864.107 -437.023 866.589 Q -436.973 869.070 -436.864 870.967 Q -436.754 872.864 -436.650 873.464 Q -436.545 874.064 -436.546 874.198 Q -436.546 874.333 -436.443 874.771 Q -436.339 875.208 -436.273 875.484 Q -436.207 875.760 -436.208 875.719 Q -436.210 875.678 -436.262 875.761 Q -436.315 875.843 -435.205 877.915 Q -435.349 877.856 -434.869 877.913 Q -434.389 877.971 -434.035 878.081 Q -433.682 878.192 -433.165 878.335 Q -432.648 878.479 -432.802 878.432 Q -432.956 878.385 -432.912 878.397 Q -432.869 878.408 -432.485 878.445 Q -432.102 878.482 -432.054 878.480 Q -432.007 878.479 -432.081 878.488 Q -432.155 878.496 -431.603 878.507 Q -431.050 878.518 -429.887 878.258 Q -428.723 877.999 -428.056 877.891 Q -427.388 877.783 -427.090 877.779 Q -426.791 877.775 -426.414 877.779 Q -426.038 877.782 -425.960 877.773 Q -425.883 877.764 -425.262 877.777 Q -424.641 877.789 -423.560 877.801 Q -422.478 877.813 -421.864 877.729 Q -421.251 877.645 -420.857 877.565 Q -420.464 877.486 -420.269 877.502 Q -420.075 877.519 -420.068 877.508 Q -420.062 877.497 -419.794 877.525 Q -419.526 877.553 -412.500 877.421 Q -412.500 877.444 -412.500 877.601 Q -412.500 877.556 -412.500 877.511 Q -413.265 877.511 -412.971 877.511 Q -412.993 877.511 -413.128 877.511 Q -413.427 878.283 -413.307 878.027 Q -413.536 879.204 -413.442 878.767 Q -413.442 879.774 -413.442 879.463 Q -413.442 880.438 -413.442 880.203 Q -413.442 881.069 -413.442 880.943 Q -413.442 881.965 -413.442 881.706 Q -413.442 882.625 -413.442 882.312 Q -413.442 883.494 -413.442 883.097 Q -413.442 884.220 -413.442 883.860 Q -413.442 884.790 -413.442 884.466 Q -413.095 885.291 -413.068 885.350 Q -413.041 885.410 -413.083 885.274 Q -412.530 885.865 -412.724 885.655 Q -412.190 886.057 -412.320 885.969 Q -411.418 886.286 -411.348 886.348 Q -411.278 886.410 -411.291 886.375 Q -411.303 886.341 -411.362 886.371 Q -411.420 886.401 -410.840 886.502 Q -410.261 886.603 -409.831 886.723 Q -409.401 886.842 -408.894 886.813 Q -408.387 886.784 -408.105 886.730 Q -407.822 886.677 -407.740 886.659 Q -407.658 886.641 -407.290 886.632 Q -406.923 886.623 -407.216 886.647 Q -407.510 886.671 -406.819 886.556 Q -406.127 886.440 -404.789 886.581 Q -403.450 886.721 -402.522 886.862 Q -401.593 887.002 -401.127 887.013 Q -400.660 887.024 -400.420 887.024 Q -400.179 887.024 -400.159 887.016 Q -400.139 887.008 -400.219 887.014 Q -400.298 887.020 -399.835 887.055 Q -399.372 887.089 -399.045 886.966 Q -398.719 886.843 -398.357 886.682 Q -397.995 886.520 -398.018 886.532 Q -398.041 886.544 -398.003 886.499 Q -397.964 886.455 -398.019 886.536 Q -398.074 886.616 -397.769 886.332 Q -397.464 886.049 -397.364 885.956 Q -397.265 885.864 -397.287 885.886 Q -397.310 885.908 -397.157 885.721 Q -397.004 885.535 -396.924 885.362 Q -396.844 885.189 -396.928 885.290 Q -397.011 885.391 -396.727 884.817 Q -396.444 884.244 -396.015 882.777 Q -395.586 881.310 -395.532 880.432 Q -395.479 879.554 -395.488 879.069 Q -395.498 878.584 -395.495 878.238 Q -395.492 877.892 -395.493 878.037 Q -395.494 878.181 -395.494 877.747 Q -395.493 877.314 -395.493 876.949 Q -395.493 876.584 -395.493 874.953 Q -395.516 874.953 -395.583 874.953 Q -395.686 874.842 -396.138 874.744 Q -396.589 874.647 -396.593 874.684 Q -397.604 874.684 -397.266 874.684 Q -398.016 874.684 -398.059 874.684 Q -398.103 874.684 -398.133 874.651 Q -398.164 874.617 -398.033 874.671 Q -397.901 874.724 -400.187 874.714 Q -402.472 874.704 -404.026 874.487 Q -405.580 874.269 -406.520 874.109 Q -407.460 873.948 -407.881 873.958 Q -408.303 873.968 -408.516 873.967 Q -408.730 873.965 -408.725 873.966 Q -408.719 873.966 -408.716 873.985 Q -408.713 874.004 -408.938 873.910 Q -409.162 873.816 -412.634 874.303 Q -412.919 874.626 -412.881 874.572 Q -413.100 874.781 -413.128 874.908 Q -413.150 874.908 -413.352 874.908 Q -413.333 875.503 -413.391 875.158 Q -413.449 874.814 -413.234 875.484 Q -413.018 876.154 -412.881 876.814 Q -412.744 877.475 -412.729 877.881 Q -412.714 878.288 -412.729 878.209 Q -412.745 878.130 -412.720 878.129 Q -412.696 878.128 -412.707 878.873 Q -412.718 879.618 -412.781 879.863 Q -412.845 880.108 -412.846 880.089 Q -412.846 880.071 -412.854 880.326 Q -412.862 880.581 -412.860 880.765 Q -412.857 880.950 -412.857 880.926 Q -412.858 880.902 -412.858 880.966 "></path>
    <path id="STROKE_493e1c8b-fa20-4838-bb32-707aa0c8e293" opacity="1.000" fill="none" stroke="#000000" stroke-width="1.000" stroke-opacity="1.000" stroke-linecap="round" stroke-linejoin="round" d="M -426.500 878.274 Q -426.500 878.996 -426.500 878.745 Q -426.500 879.922 -426.500 879.553 Q -426.500 880.539 -426.500 880.203 Q -426.500 881.180 -426.500 880.921 Q -426.312 881.980 -426.365 881.616 Q -426.229 882.137 -426.215 882.214 Q -426.200 882.290 -426.185 882.290 Q -426.329 882.063 -425.955 883.901 Q -425.581 885.738 -425.295 888.443 Q -425.010 891.149 -425.027 892.441 Q -425.045 893.733 -424.986 894.123 Q -424.928 894.513 -424.906 894.726 Q -424.883 894.938 -424.843 895.089 Q -424.802 895.240 -424.771 895.455 Q -424.741 895.670 -424.730 895.727 Q -424.719 895.784 -424.662 896.002 Q -424.605 896.220 -424.551 896.413 Q -424.497 896.607 -424.513 896.657 Q -424.529 896.706 -424.513 896.672 Q -424.497 896.637 -424.575 896.909 Q -424.653 897.181 -424.122 899.588 L -424.077 899.588 Q -424.077 899.610 -423.874 899.890 L -423.897 899.924 Q -423.852 899.969 -423.807 899.991 Q -423.841 900.227 -423.359 900.418 L -423.359 900.440 Q -423.314 900.463 -423.089 900.575 Q -423.520 900.924 -422.435 900.912 Q -421.349 900.899 -420.499 900.910 Q -419.649 900.921 -419.048 901.028 Q -418.447 901.136 -418.254 901.132 Q -418.061 901.129 -418.037 901.141 Q -418.013 901.154 -417.519 901.157 Q -417.026 901.160 -417.097 901.154 Q -417.168 901.149 -417.075 901.153 Q -416.981 901.158 -416.293 901.166 Q -415.604 901.175 -415.114 901.143 Q -414.624 901.111 -414.512 901.081 Q -414.399 901.052 -414.463 901.068 Q -414.526 901.085 -414.427 901.070 Q -414.328 901.055 -414.487 901.070 Q -414.645 901.085 -414.370 901.064 Q -414.096 901.043 -413.495 901.007 Q -412.894 900.970 -412.861 900.976 Q -412.827 900.983 -412.525 900.980 Q -412.222 900.977 -412.106 900.973 Q -411.989 900.969 -412.170 900.984 Q -412.351 901.000 -411.362 900.994 Q -410.373 900.988 -409.757 900.974 Q -409.141 900.959 -408.896 900.914 Q -408.652 900.869 -408.596 900.879 Q -408.541 900.889 -408.589 900.913 Q -408.636 900.938 -408.435 900.859 Q -408.233 900.781 -407.119 900.834 Q -406.005 900.886 -405.489 901.053 Q -404.973 901.219 -404.670 901.306 Q -404.367 901.392 -404.362 901.392 Q -404.357 901.392 -404.288 901.383 Q -404.288 901.405 -404.288 901.428 Q -404.288 901.383 -404.288 901.158 Q -404.288 901.181 -404.288 901.293 Q -404.288 901.248 -404.288 901.203 Q -404.288 901.226 -404.288 901.337 Q -404.288 901.293 -404.288 901.158 Q -404.288 901.181 -404.288 901.428 Q -404.288 901.383 -404.288 901.337 Q -404.288 901.009 -404.299 902.052 Q -404.311 903.094 -404.297 903.980 Q -404.282 904.866 -404.296 905.429 Q -404.310 905.993 -404.250 906.164 Q -404.191 906.336 -404.185 906.387 Q -404.178 906.438 -404.122 906.709 Q -404.066 906.979 -404.033 907.135 Q -404.000 907.290 -403.985 907.429 Q -403.970 907.567 -403.953 907.816 Q -403.936 908.065 -403.855 908.389 Q -403.775 908.712 -403.754 908.779 Q -403.733 908.847 -403.745 908.855 Q -403.757 908.864 -403.720 909.149 Q -403.682 909.435 -403.644 909.453 Q -403.607 909.471 -403.648 909.460 Q -403.690 909.449 -403.501 909.578 Q -403.312 909.707 -402.719 909.922 Q -402.126 910.137 -402.179 910.110 Q -401.201 910.355 -401.551 910.267 Q -400.716 910.439 -400.923 910.424 Q -401.086 910.383 -400.650 910.487 Q -400.214 910.591 -399.179 910.699 Q -398.143 910.807 -397.567 910.811 Q -396.991 910.815 -397.109 910.813 Q -397.227 910.811 -397.042 910.772 Q -396.856 910.732 -396.066 910.743 Q -395.275 910.754 -394.792 910.708 Q -394.308 910.662 -393.947 910.676 Q -393.586 910.691 -393.563 910.718 Q -393.541 910.745 -393.596 910.696 Q -393.651 910.648 -393.341 910.779 Q -393.032 910.909 -392.172 910.397 Q -391.312 909.885 -390.914 909.531 Q -390.515 909.177 -390.282 908.982 Q -390.048 908.788 -390.068 908.803 Q -390.089 908.819 -390.099 908.842 Q -390.109 908.865 -390.093 908.826 Q -390.077 908.786 -390.094 908.831 Q -390.112 908.877 -389.924 908.583 Q -389.736 908.288 -389.594 908.052 Q -389.452 907.815 -389.476 907.780 Q -389.500 907.746 -389.450 907.892 Q -389.400 908.039 -389.189 907.051 Q -388.978 906.064 -388.983 905.747 Q -388.987 905.430 -388.987 904.888 Q -388.987 904.346 -388.987 904.001 Q -388.987 903.657 -388.987 903.218 Q -388.987 902.778 -389.017 902.857 Q -389.048 902.935 -388.949 902.974 Q -388.850 903.013 -388.939 902.047 Q -389.028 901.082 -389.136 900.593 Q -389.243 900.105 -389.290 900.015 Q -389.337 899.924 -389.533 899.417 Q -389.730 898.911 -389.695 899.033 Q -389.659 899.154 -389.768 898.854 Q -389.877 898.554 -389.884 898.555 L -389.907 898.510 Q -389.952 898.510 -390.064 898.421 Q -389.945 898.505 -390.192 898.474 Q -390.439 898.443 -391.298 898.452 Q -392.156 898.461 -392.619 898.511 Q -393.082 898.562 -393.390 898.558 Q -393.698 898.554 -393.764 898.578 Q -393.830 898.602 -393.716 898.585 Q -393.603 898.568 -393.971 898.560 Q -394.339 898.552 -394.642 898.669 Q -394.945 898.787 -395.224 898.875 Q -395.503 898.962 -395.713 899.008 Q -395.922 899.053 -396.199 899.073 Q -396.477 899.093 -396.512 899.091 Q -396.547 899.089 -396.513 899.118 Q -396.479 899.147 -396.860 899.140 Q -397.241 899.134 -397.239 899.122 Q -397.238 899.110 -397.612 898.938 Q -397.986 898.765 -398.267 898.701 Q -398.548 898.637 -398.768 898.552 Q -398.989 898.466 -399.189 898.408 Q -399.389 898.350 -399.483 898.392 Q -399.577 898.434 -399.382 898.370 Q -399.188 898.307 -399.836 898.235 Q -400.485 898.163 -401.005 898.249 Q -401.524 898.334 -401.904 898.463 Q -402.283 898.592 -402.293 898.573 Q -402.303 898.554 -402.380 898.568 Q -402.456 898.583 -402.707 898.616 Q -402.958 898.649 -402.929 898.641 Q -402.900 898.632 -403.375 898.717 Q -403.849 898.802 -403.749 898.792 Q -403.650 898.782 -403.670 898.768 Q -403.690 898.754 -403.852 898.830 Q -404.013 898.907 -404.295 899.131 Q -404.577 899.355 -404.530 899.322 Q -404.483 899.289 -404.505 899.276 Q -404.527 899.264 -404.586 899.446 Q -404.644 899.627 -404.806 899.959 Q -404.968 900.291 -404.955 900.282 Q -404.943 900.273 -404.963 900.323 Q -404.983 900.372 -405.082 900.600 Q -405.181 900.827 -405.169 900.751 Q -405.156 900.674 -405.157 900.713 Q -405.157 900.752 -405.244 900.999 Q -405.330 901.246 -405.351 901.464 Q -405.372 901.683 -405.367 901.524 Q -405.363 901.365 -405.364 901.893 Q -405.366 902.420 -405.365 903.029 Q -405.365 903.638 -405.365 904.091 Q -405.365 904.545 -405.365 904.793 "></path>
    <path id="STROKE_6675a763-ecef-4c04-91ab-b99bbcafdb40" opacity="1.000" fill="none" stroke="#000000" stroke-width="1.000" stroke-opacity="1.000" stroke-linecap="round" stroke-linejoin="round" d="M -426.275 887.741 Q -426.298 887.741 -426.454 887.764 Q -426.454 887.809 -426.454 887.809 Q -426.454 887.809 -426.589 887.876 Q -426.589 887.831 -426.589 887.786 Q -426.636 887.414 -426.606 888.660 Q -426.576 889.906 -426.829 890.631 Q -427.082 891.356 -427.187 891.687 Q -427.293 892.017 -427.316 892.122 Q -427.340 892.227 -427.321 892.210 Q -427.302 892.194 -427.453 892.454 Q -427.604 892.714 -427.734 892.912 Q -427.863 893.110 -427.946 893.178 Q -428.030 893.246 -427.976 893.220 Q -427.922 893.195 -428.331 893.872 Q -428.741 894.548 -429.385 894.993 Q -430.029 895.437 -430.462 895.574 Q -430.895 895.711 -431.240 895.865 Q -431.585 896.019 -431.574 896.002 Q -431.562 895.985 -431.580 895.986 Q -431.598 895.986 -432.435 896.190 Q -433.273 896.394 -436.040 896.558 Q -438.807 896.721 -440.673 896.717 Q -442.539 896.713 -443.271 896.582 Q -444.003 896.452 -444.314 896.360 Q -444.626 896.269 -444.990 896.221 Q -445.355 896.174 -445.687 896.148 Q -446.020 896.122 -445.863 896.158 Q -445.706 896.195 -446.292 896.091 Q -446.877 895.986 -449.000 896.295 Q -451.123 896.604 -452.295 896.842 Q -453.466 897.080 -454.038 897.196 Q -454.610 897.312 -454.724 897.323 Q -454.839 897.334 -454.978 897.338 Q -455.116 897.341 -455.393 897.384 Q -455.670 897.426 -455.933 897.473 Q -456.196 897.521 -456.322 897.539 Q -456.448 897.557 -456.548 897.576 Q -456.647 897.595 -456.977 897.666 Q -457.306 897.736 -457.324 897.746 Q -457.342 897.755 -457.645 897.832 Q -457.947 897.909 -457.817 897.870 Q -457.686 897.831 -458.121 897.956 Q -458.556 898.082 -459.122 898.274 Q -459.688 898.466 -459.903 898.550 Q -460.119 898.634 -460.081 898.620 Q -460.043 898.605 -460.146 898.660 Q -460.249 898.715 -460.075 898.635 Q -459.901 898.554 -461.500 899.318 Q -461.542 899.379 -461.482 899.588 Q -461.423 899.796 -461.249 900.935 Q -461.075 902.074 -461.055 902.611 Q -461.035 903.148 -461.040 903.083 Q -461.045 903.018 -461.055 903.044 Q -461.065 903.070 -461.016 903.351 Q -460.967 903.632 -460.982 903.598 Q -460.996 903.565 -460.995 903.558 Q -460.994 903.551 -460.961 903.709 Q -460.928 903.866 -460.963 903.706 Q -460.998 903.545 -460.921 903.901 Q -460.844 904.258 -460.749 904.760 Q -460.654 905.263 -460.671 905.263 Q -460.689 905.263 -460.666 905.245 Q -460.643 905.228 -460.565 905.583 Q -460.487 905.939 -460.515 905.825 Q -460.543 905.711 -460.534 905.727 Q -460.525 905.743 -460.520 905.799 Q -460.516 905.855 -460.422 906.543 Q -460.422 906.498 -460.422 906.363 Q -460.422 906.386 -460.422 906.453 Q -460.422 906.408 -460.422 906.363 Q -460.422 906.475 -460.422 906.588 Q -460.422 906.543 -460.422 906.408 Q -460.968 906.264 -460.804 906.318 Q -461.938 906.318 -461.544 906.318 Q -462.376 906.208 -462.083 906.229 Q -462.934 906.067 -462.956 906.004 Q -462.977 905.940 -462.999 905.953 Q -463.020 905.966 -463.064 905.964 Q -463.109 905.961 -463.392 905.959 Q -463.676 905.958 -463.606 905.956 Q -463.536 905.954 -463.950 905.978 Q -464.364 906.002 -464.420 906.007 Q -464.477 906.011 -464.493 906.019 Q -464.509 906.026 -464.787 906.020 Q -465.065 906.013 -465.292 906.159 Q -465.519 906.304 -465.905 906.415 Q -466.291 906.526 -466.346 906.543 Q -466.401 906.559 -466.400 906.598 Q -466.399 906.636 -466.381 906.588 Q -466.362 906.540 -466.688 906.803 Q -467.013 907.065 -467.125 907.187 Q -467.236 907.309 -467.220 907.328 Q -467.475 908.310 -467.377 908.023 Q -467.394 909.228 -467.400 908.809 Q -467.437 909.544 -467.422 909.504 Q -467.422 910.443 -467.422 910.200 Q -467.422 911.071 -467.422 910.873 Q -467.422 912.008 -467.422 911.636 Q -467.422 912.314 -467.422 912.351 Q -467.422 912.389 -467.422 912.331 Q -467.422 913.349 -467.422 913.071 Q -467.422 913.721 -467.422 913.700 Q -467.531 913.331 -466.704 916.325 Q -466.486 916.494 -466.390 916.863 Q -465.693 917.235 -465.644 917.265 Q -465.594 917.294 -465.672 917.245 Q -464.866 917.572 -465.134 917.469 Q -465.367 917.625 -462.994 917.914 Q -460.621 918.203 -458.844 918.201 Q -457.068 918.199 -456.188 918.158 Q -455.308 918.118 -454.973 918.000 Q -454.637 917.883 -454.339 917.772 Q -454.041 917.661 -454.214 917.712 Q -454.387 917.763 -453.711 917.547 Q -453.034 917.331 -452.284 916.856 Q -451.534 916.380 -451.002 915.866 Q -450.470 915.353 -449.866 914.648 Q -449.261 913.943 -448.865 913.464 Q -448.469 912.984 -448.300 911.910 Q -448.130 910.836 -448.087 909.650 Q -448.044 908.464 -447.888 907.693 Q -447.731 906.921 -447.702 906.559 Q -447.673 906.197 -447.677 906.069 Q -447.680 905.941 -447.680 905.960 Q -447.679 905.978 -447.679 905.975 Q -447.679 905.972 -447.679 905.017 Q -448.200 905.023 -447.967 905.012 Q -447.734 905.001 -448.025 905.074 Q -448.316 905.147 -449.116 905.148 Q -449.916 905.148 -450.399 905.249 Q -450.883 905.350 -451.187 905.341 Q -451.491 905.332 -451.601 905.351 Q -451.712 905.370 -451.708 905.351 Q -451.705 905.332 -452.409 905.491 Q -453.113 905.650 -454.369 905.935 Q -455.625 906.219 -456.045 906.300 Q -456.464 906.382 -456.890 906.392 Q -457.316 906.402 -457.290 906.407 Q -457.264 906.412 -457.201 906.421 Q -457.138 906.430 -457.502 906.379 Q -457.865 906.328 -458.270 906.255 Q -458.676 906.182 -459.048 906.101 Q -459.420 906.020 -459.746 905.934 Q -460.073 905.849 -460.174 905.876 Q -460.276 905.903 -459.927 905.834 Q -459.577 905.764 -462.890 906.094 Q -462.836 905.957 -462.756 905.959 Q -462.814 906.528 -462.442 904.209 "></path>
  </g>
</svg>