<svg width="379" height="379" xmlns="http://www.w3.org/2000/svg" xmlns:xlink="http://www.w3.org/1999/xlink" overflow="hidden"><g transform="translate(-1322 -869)"><rect x="1322" y="869" width="378" height="378" fill="#FFFFFF" fill-opacity="0"/><path d="M1433.41 947 1585.45 947 1585.45 994.92 1486.85 994.92 1484.22 1030.39 1484.59 1030.39C1493.62 1021.33 1506.42 1016.81 1523.35 1016.81 1532.76 1016.81 1542.17 1018.69 1551.2 1022.47 1560.61 1026.24 1568.52 1031.52 1575.67 1038.31 1582.82 1045.1 1588.46 1053.03 1592.6 1062.08 1596.74 1071.14 1599 1080.57 1599 1091.14 1599 1106.61 1595.24 1120.19 1588.09 1131.89 1580.94 1143.96 1570.77 1153.02 1557.23 1159.81 1544.05 1166.6 1528.62 1170 1510.94 1170 1494 1170 1479.32 1167.36 1466.53 1161.32 1454.11 1155.28 1443.95 1146.61 1436.42 1135.66 1429.27 1124.72 1425.13 1111.14 1424 1096.04L1480.45 1096.04C1480.45 1104.35 1483.46 1111.14 1489.48 1116.8 1495.13 1122.46 1502.66 1125.1 1511.31 1125.1 1520.34 1125.1 1527.87 1122.08 1533.14 1116.04 1538.78 1110.01 1541.8 1102.46 1541.8 1093.03 1541.8 1083.21 1538.78 1075.29 1533.14 1069.25 1527.49 1062.84 1520.34 1059.82 1511.31 1059.82 1503.78 1059.82 1497.39 1061.71 1492.12 1065.1 1487.23 1068.12 1483.46 1072.65 1481.96 1078.31L1427.39 1078.31 1433.41 947Z" fill-rule="evenodd"/><path d="M1355 1000 1391 1000 1391 1018.96 1380.35 1018.96 1380.35 1097.04 1391 1097.04 1391 1116 1355 1116 1355 1000Z" fill-rule="evenodd"/><path d="M1632 1000 1668 1000 1668 1116 1632 1116 1632 1097.04 1642.65 1097.04 1642.65 1018.96 1632 1018.96 1632 1000Z" fill-rule="evenodd"/></g></svg>