<?xml version="1.0" encoding="UTF-8" standalone="yes"?>
<svg xmlns="http://www.w3.org/2000/svg" xmlns:xlink="http://www.w3.org/1999/xlink" width="90.654px" height="119.443px" version="1.1" viewBox="-499.989 718.086 60.436 79.629">
  <!--
	Exported with Concepts: Smarter Sketching
	Version: 2023.03.3 on Android 16
	https://concepts.app/
	-->
  <title>未命名 2</title>
  <desc>Drawing exported from Concepts: Smarter Sketching</desc>
  <defs></defs>
  <g id="钢笔" opacity="1.000">
    <path id="STROKE_7eebe132-551b-45d2-9c33-ac2a550a5f45" opacity="1.000" fill="none" stroke="#000000" stroke-width="1.000" stroke-opacity="1.000" stroke-linecap="round" stroke-linejoin="round" d="M -498.080 732.083 Q -498.086 732.093 -498.060 732.676 Q -498.034 733.258 -498.000 733.172 Q -497.990 733.382 -497.946 733.888 Q -497.901 734.394 -497.920 734.372 Q -497.920 735.411 -497.920 735.194 Q -497.845 735.085 -497.579 738.973 Q -497.313 742.860 -496.919 745.546 Q -496.525 748.232 -496.250 749.624 Q -495.974 751.015 -495.885 751.747 Q -495.796 752.479 -495.457 753.677 Q -495.117 754.876 -494.887 758.007 Q -494.657 761.138 -494.697 762.879 Q -494.737 764.621 -494.725 765.433 Q -494.713 766.245 -494.713 766.666 Q -494.712 767.087 -494.712 767.187 Q -494.713 767.288 -494.735 768.826 Q -494.756 770.365 -494.620 772.189 Q -494.483 774.014 -494.445 775.063 Q -494.407 776.112 -494.404 776.677 Q -494.401 777.242 -494.377 777.931 Q -494.353 778.619 -494.210 779.443 Q -494.066 780.268 -494.036 780.502 Q -494.006 780.736 -493.951 780.971 Q -493.897 781.205 -494.037 780.916 Q -494.178 780.627 -493.159 786.795 Q -493.118 786.795 -493.038 786.817 Q -493.038 786.861 -493.038 786.883 Q -492.999 786.883 -492.799 786.950 Q -492.799 786.995 -492.799 787.017 Q -493.232 787.252 -491.040 786.833 Q -488.847 786.414 -485.956 786.084 Q -483.064 785.754 -481.652 785.688 Q -480.240 785.621 -475.001 785.051 Q -469.761 784.481 -466.597 784.035 Q -463.432 783.588 -461.867 783.411 Q -460.302 783.233 -458.458 782.734 Q -456.615 782.235 -455.803 782.055 Q -454.990 781.875 -454.583 781.589 Q -454.176 781.303 -454.014 781.238 Q -453.853 781.173 -453.716 781.107 Q -453.579 781.040 -453.483 780.967 Q -453.387 780.894 -453.441 780.948 Q -453.495 781.001 -453.435 780.955 Q -453.376 780.909 -453.426 780.932 Q -453.476 780.955 -453.491 780.965 Q -453.506 780.974 -453.155 780.730 Q -452.804 780.487 -452.764 779.880 Q -452.723 779.273 -452.841 778.542 Q -452.959 777.810 -453.152 775.306 Q -453.346 772.801 -453.428 768.709 Q -453.511 764.617 -453.435 762.224 Q -453.359 759.831 -453.469 755.389 Q -453.579 750.946 -453.971 745.574 Q -454.362 740.203 -454.077 734.224 Q -453.793 728.246 -453.745 720.527 Q -453.952 720.410 -454.187 720.240 Q -454.421 720.069 -454.823 720.025 Q -455.224 719.982 -455.572 719.995 Q -455.920 720.007 -455.912 720.019 Q -455.903 720.031 -456.225 720.110 Q -456.548 720.190 -456.468 720.181 Q -456.388 720.173 -456.955 720.318 Q -457.521 720.462 -459.926 721.502 Q -462.330 722.541 -463.713 723.194 Q -465.097 723.847 -467.511 724.880 Q -469.924 725.914 -473.000 726.387 Q -476.075 726.861 -477.587 726.858 Q -479.099 726.856 -480.183 726.715 Q -481.266 726.575 -483.638 726.762 Q -486.010 726.949 -487.170 726.962 Q -488.330 726.974 -490.007 727.896 Q -491.685 728.818 -495.639 731.149 Q -495.639 731.105 -495.639 731.060 Q -495.290 732.015 -495.400 731.683 Q -495.101 732.563 -495.199 732.283 Q -495.159 732.394 -495.159 732.438 "></path>
    <path id="STROKE_fb530d89-afe0-498c-bf8a-3d32ede6b89b" opacity="1.000" fill="none" stroke="#000000" stroke-width="1.000" stroke-opacity="1.000" stroke-linecap="round" stroke-linejoin="round" d="M -493.959 739.683 Q -493.959 739.705 -493.959 739.772 Q -493.536 739.355 -492.052 738.609 Q -490.568 737.862 -489.747 737.568 Q -488.926 737.273 -488.620 737.151 Q -488.315 737.028 -488.067 736.996 Q -487.820 736.963 -486.870 736.804 Q -485.921 736.646 -485.312 736.629 Q -484.704 736.612 -482.644 736.383 Q -480.585 736.154 -477.393 735.949 Q -477.485 735.949 -477.554 735.949 "></path>
    <path id="STROKE_ef621564-d977-424c-975f-8170b30dd8c8" opacity="1.000" fill="none" stroke="#000000" stroke-width="1.000" stroke-opacity="1.000" stroke-linecap="round" stroke-linejoin="round" d="M -491.998 743.550 Q -492.093 744.121 -492.098 743.994 Q -491.674 743.779 -493.359 744.927 Q -492.391 744.782 -492.658 744.838 Q -491.798 744.670 -491.998 744.705 Q -491.407 744.623 -490.715 744.360 Q -490.022 744.096 -488.667 743.800 Q -487.312 743.504 -485.833 743.100 Q -484.355 742.696 -477.393 742.083 Q -477.393 742.105 -477.413 742.216 Q -477.453 742.216 -477.633 742.216 "></path>
    <path id="STROKE_b0c0f2f8-1171-479c-9285-7e2c2fc19acd" opacity="1.000" fill="none" stroke="#000000" stroke-width="1.000" stroke-opacity="1.000" stroke-linecap="round" stroke-linejoin="round" d="M -491.398 750.216 Q -491.046 750.270 -492.799 751.683 Q -492.998 751.742 -491.844 751.614 Q -490.690 751.486 -489.987 751.414 Q -489.283 751.343 -488.410 751.233 Q -487.536 751.122 -486.824 751.002 Q -486.111 750.882 -484.987 750.875 Q -483.864 750.867 -481.541 750.379 Q -479.218 749.892 -476.433 748.972 Q -476.431 748.490 -476.453 748.616 Q -476.809 748.558 -477.153 748.705 "></path>
    <path id="STROKE_530a8c26-7612-4a1a-9394-d1300e759488" opacity="1.000" fill="none" stroke="#000000" stroke-width="1.000" stroke-opacity="1.000" stroke-linecap="round" stroke-linejoin="round" d="M -485.276 786.439 Q -485.296 786.439 -485.316 786.439 Q -485.316 785.677 -485.316 785.906 Q -485.316 785.861 -485.316 785.550 Q -485.316 786.089 -485.316 785.995 Q -485.450 787.153 -485.227 790.003 Q -485.004 792.853 -483.956 795.817 Q -483.956 795.773 -483.956 795.551 Q -483.956 795.573 -483.956 795.639 Q -483.967 795.644 -483.785 795.671 Q -483.603 795.698 -482.893 795.420 Q -482.183 795.143 -481.861 794.983 Q -481.539 794.823 -481.209 794.751 Q -480.879 794.678 -480.592 794.649 Q -480.305 794.620 -480.166 794.617 Q -480.028 794.614 -480.047 794.591 Q -480.066 794.567 -480.112 794.598 Q -480.158 794.629 -477.341 794.757 Q -474.524 794.886 -472.941 794.881 Q -471.359 794.877 -470.327 794.612 Q -469.295 794.346 -468.534 794.336 Q -467.773 794.326 -467.410 794.347 Q -467.046 794.368 -466.840 794.356 Q -466.635 794.343 -466.622 794.329 Q -466.608 794.315 -466.491 794.277 Q -466.373 794.239 -465.894 794.283 Q -465.414 794.327 -463.140 794.088 Q -460.866 793.849 -459.215 793.644 Q -457.565 793.439 -456.760 793.203 Q -455.954 792.966 -455.599 792.911 Q -455.244 792.857 -454.896 792.796 Q -454.548 792.735 -454.603 792.745 Q -454.658 792.756 -454.552 792.764 Q -454.447 792.772 -454.569 792.748 Q -454.691 792.724 -454.250 792.755 Q -453.809 792.787 -452.625 792.617 Q -452.625 792.572 -452.625 792.484 Q -452.625 792.506 -452.625 792.572 Q -452.585 792.572 -452.545 792.572 Q -452.545 792.595 -452.545 792.750 Q -452.545 792.706 -452.545 792.484 Q -452.545 792.506 -452.545 792.662 Q -452.545 792.617 -452.545 792.572 Q -452.565 792.572 -452.865 792.572 Q -452.865 792.528 -452.865 792.484 Q -452.865 792.506 -452.865 792.572 Q -452.885 792.572 -452.945 792.572 Q -452.945 792.595 -452.945 792.617 Q -452.945 792.573 -452.945 792.350 Q -452.945 792.373 -452.945 792.572 Q -452.945 792.528 -452.945 792.395 Q -452.578 791.996 -452.743 792.156 Q -452.907 792.317 -452.598 792.047 Q -452.288 791.777 -452.181 791.701 Q -452.074 791.626 -452.099 791.640 Q -452.123 791.654 -451.751 791.242 Q -451.379 790.830 -451.365 790.839 Q -451.083 790.602 -450.934 790.344 Q -450.785 790.086 -450.752 790.109 Q -450.718 790.132 -450.697 790.093 Q -450.676 790.054 -450.490 789.797 Q -450.305 789.541 -448.876 788.246 Q -447.447 786.952 -446.673 786.239 Q -445.899 785.527 -445.329 784.949 Q -444.759 784.370 -444.064 783.807 Q -443.370 783.244 -442.849 782.786 Q -442.329 782.330 -442.047 782.012 Q -441.765 781.694 -441.764 781.696 Q -441.764 781.698 -441.702 781.728 Q -441.702 781.684 -441.661 781.550 Q -441.621 781.550 -441.541 781.550 Q -441.541 781.506 -441.461 781.461 Q -441.461 781.417 -441.461 781.372 Q -441.461 781.395 -441.461 781.550 Q -441.461 781.506 -441.561 781.284 Q -442.058 780.943 -441.922 781.017 Q -442.394 780.454 -442.262 780.617 Q -442.601 780.361 -442.582 780.395 Q -443.247 779.801 -443.042 779.995 Q -443.060 780.014 -443.407 779.707 Q -443.754 779.401 -444.046 779.149 Q -444.337 778.898 -444.723 778.606 Q -445.109 778.314 -445.305 778.170 Q -445.501 778.026 -445.477 778.038 Q -445.453 778.050 -445.483 778.040 Q -445.512 778.031 -445.891 777.733 Q -446.270 777.434 -446.553 777.204 Q -446.836 776.975 -446.910 776.915 Q -446.985 776.855 -447.075 776.807 Q -447.165 776.759 -447.095 776.793 Q -447.024 776.826 -447.737 776.335 Q -448.449 775.843 -449.824 774.972 Q -449.824 774.928 -449.824 774.883 Q -449.844 774.883 -450.024 774.883 Q -450.024 774.839 -450.044 774.794 Q -450.084 774.794 -450.224 774.794 Q -450.224 774.750 -450.244 774.706 Q -451.095 774.406 -450.764 774.528 Q -451.193 774.295 -451.125 774.306 Q -451.144 774.261 -451.144 774.172 Q -451.165 774.172 -451.305 774.172 Q -451.325 774.128 -451.344 773.994 Q -451.365 773.994 -451.405 773.994 Q -451.425 773.950 -451.445 773.906 Q -451.912 773.759 -451.944 773.751 Q -451.976 773.742 -451.925 773.728 Q -451.965 773.728 -451.985 773.728 Q -451.985 773.683 -451.985 773.639 Q -452.005 773.639 -452.105 773.639 Q -452.105 773.594 -452.105 773.550 Q -452.105 773.983 -452.105 773.950 Q -452.105 774.978 -452.105 774.639 Q -452.097 775.333 -452.125 775.328 Q -452.051 775.206 -452.179 776.258 Q -452.308 777.310 -452.464 781.046 Q -452.621 784.782 -452.619 786.606 Q -452.617 788.430 -452.645 789.286 Q -452.674 790.141 -452.657 790.473 Q -452.641 790.804 -452.659 790.781 Q -452.678 790.757 -452.647 790.731 Q -452.616 790.705 -452.653 790.868 Q -452.690 791.031 -452.744 791.209 Q -452.799 791.387 -452.875 791.771 Q -452.952 792.154 -453.028 792.388 Q -453.104 792.622 -453.077 792.484 Q -453.050 792.347 -453.061 792.802 Q -453.071 793.256 -453.067 793.007 Q -453.062 792.758 -453.065 793.639 Q -453.065 793.595 -453.065 793.551 Q -453.065 793.573 -453.065 793.684 Q -452.809 793.451 -452.825 793.461 Q -452.460 793.047 -452.505 793.106 Q -452.413 792.943 -452.153 792.665 Q -451.892 792.387 -451.637 792.069 Q -451.382 791.751 -451.345 791.749 Q -451.309 791.747 -451.320 791.793 Q -451.332 791.838 -450.913 791.276 Q -450.495 790.715 -450.569 790.798 Q -450.643 790.881 -450.591 790.803 Q -450.539 790.725 -450.378 790.465 Q -450.217 790.205 -450.198 790.225 Q -450.179 790.245 -450.248 790.261 Q -450.317 790.278 -450.225 790.245 Q -450.134 790.212 -450.223 790.245 Q -450.311 790.278 -450.035 790.049 Q -449.758 789.819 -449.531 789.629 Q -449.305 789.438 -449.321 789.427 Q -449.336 789.416 -449.341 789.480 Q -449.346 789.543 -448.682 789.033 Q -448.018 788.523 -447.717 788.154 Q -447.415 787.786 -447.192 787.687 Q -446.968 787.587 -446.951 787.568 Q -446.934 787.549 -446.945 787.520 Q -446.957 787.491 -446.986 787.563 Q -447.014 787.636 -446.927 787.532 Q -446.841 787.427 -446.605 787.087 Q -446.368 786.746 -446.305 786.673 Q -446.241 786.600 -446.259 786.626 Q -446.277 786.652 -446.264 786.626 Q -446.250 786.600 -446.283 786.641 Q -446.317 786.682 -446.008 786.340 Q -445.699 785.999 -445.652 785.927 Q -445.604 785.855 -445.594 785.842 Q -445.583 785.828 -445.632 785.829 Q -445.681 785.829 -445.396 785.494 Q -445.111 785.158 -445.153 785.185 Q -445.195 785.213 -445.137 785.225 Q -445.080 785.238 -445.165 785.258 Q -445.251 785.279 -445.186 785.244 Q -445.122 785.208 -444.909 785.068 Q -444.696 784.928 -444.486 784.812 Q -444.277 784.697 -444.261 784.661 Q -444.245 784.626 -444.252 784.667 Q -444.259 784.707 -444.160 784.630 Q -444.061 784.554 -443.803 784.244 Q -443.545 783.935 -443.234 783.521 Q -442.923 783.107 -442.944 783.146 Q -442.965 783.185 -442.972 783.177 Q -442.980 783.170 -442.872 783.066 Q -442.764 782.963 -442.541 782.652 Q -442.318 782.342 -442.351 782.361 Q -442.385 782.380 -442.324 782.278 Q -442.264 782.176 -442.123 781.970 Q -441.982 781.764 -442.007 781.704 Q -442.032 781.643 -442.035 781.644 Q -442.038 781.645 -442.029 781.644 Q -442.021 781.643 -441.988 781.324 Q -441.955 781.005 -442.256 780.592 Q -442.556 780.180 -442.495 780.209 Q -442.434 780.238 -442.452 780.290 Q -442.469 780.342 -442.642 779.946 Q -442.815 779.549 -442.983 778.856 Q -443.151 778.163 -443.141 778.100 Q -443.130 778.037 -443.116 778.100 Q -443.102 778.163 -443.175 777.657 Q -443.248 777.152 -443.723 774.253 Q -444.198 771.353 -444.409 769.289 Q -444.620 767.225 -444.749 765.832 Q -444.879 764.439 -444.881 762.727 Q -444.883 761.016 -445.055 758.720 Q -445.227 756.424 -445.276 754.894 Q -445.326 753.363 -445.419 749.907 Q -445.512 746.450 -445.507 744.273 Q -445.502 742.095 -445.502 741.430 Q -445.503 740.765 -445.503 740.076 Q -445.503 739.386 -445.503 738.911 Q -445.503 738.436 -445.500 738.166 Q -445.496 737.896 -445.499 737.962 Q -445.502 738.027 -445.517 737.872 Q -445.531 737.716 -445.461 736.953 Q -445.390 736.191 -445.325 735.611 Q -445.259 735.031 -445.272 734.728 Q -445.286 734.425 -445.279 734.440 Q -445.272 734.456 -445.271 734.420 Q -445.271 734.384 -445.260 734.300 Q -445.249 734.215 -445.227 733.991 Q -445.204 733.766 -445.193 733.547 Q -445.182 733.327 -445.182 733.081 Q -445.183 732.836 -445.183 732.868 Q -445.183 732.901 -445.183 732.805 Q -445.183 732.709 -445.183 732.504 Q -445.183 732.298 -445.183 732.199 Q -445.183 732.101 -445.183 732.344 Q -445.183 732.588 -445.183 730.972 Q -445.183 730.994 -445.183 731.016 Q -445.183 731.282 -445.183 729.416 Q -445.183 729.438 -445.183 729.505 Q -445.183 729.460 -445.183 729.238 Q -445.183 729.260 -445.183 729.283 Q -445.202 729.283 -445.303 729.305 L -445.303 729.327 Q -445.954 729.373 -445.723 729.371 Q -446.530 729.756 -446.263 729.616 Q -446.295 729.796 -447.373 730.041 Q -448.452 730.286 -449.264 730.550 Q -450.076 730.814 -450.403 730.984 Q -450.730 731.154 -450.753 731.177 Q -450.776 731.201 -451.145 731.385 Q -451.514 731.568 -451.415 731.503 Q -451.316 731.437 -451.379 731.484 Q -451.442 731.532 -451.363 731.485 Q -451.283 731.438 -451.305 731.450 Q -451.327 731.462 -451.316 731.452 Q -451.305 731.442 -451.305 731.444 Q -451.306 731.447 -451.299 731.440 Q -451.293 731.434 -451.289 731.437 Q -451.286 731.441 -451.293 731.444 Q -451.299 731.446 -451.304 731.449 Q -451.309 731.451 -451.335 731.463 Q -451.360 731.475 -451.339 731.466 Q -451.319 731.458 -451.416 731.501 Q -451.514 731.545 -451.603 731.586 Q -451.692 731.627 -451.963 731.709 Q -452.234 731.791 -452.336 731.805 Q -452.437 731.819 -452.665 731.816 Q -452.665 731.838 -452.665 731.861 Q -452.685 731.861 -452.825 731.861 Q -452.825 731.816 -452.825 731.772 Q -452.845 731.772 -452.865 731.772 Q -452.865 731.727 -452.865 731.682 Q -452.865 731.705 -452.865 731.816 Q -452.865 731.772 -452.865 731.727 Q -452.885 731.727 -452.985 731.772 Q -453.110 731.911 -453.145 731.994 L -453.165 731.994 Q -453.185 731.949 -453.205 731.905 Q -453.225 731.905 -453.465 732.016 Q -453.465 732.139 -453.465 732.260 Q -453.485 732.260 -453.505 732.260 Q -453.505 732.216 -453.505 732.172 Q -453.525 732.172 -453.585 732.172 Q -453.585 732.194 -453.585 732.349 Q -453.605 732.349 -453.626 732.349 Q -453.626 732.305 -453.626 732.260 Q -453.315 732.561 -453.285 732.505 Q -453.370 732.525 -452.625 732.527 "></path>
  </g>
</svg>