<?xml version="1.0" encoding="UTF-8" standalone="yes"?>
<svg xmlns="http://www.w3.org/2000/svg" xmlns:xlink="http://www.w3.org/1999/xlink" width="74.834px" height="80.402px" version="1.1" viewBox="-228.149 705.370 49.889 53.601">
  <!--
	Exported with Concepts: Smarter Sketching
	Version: 2023.03.3 on Android 16
	https://concepts.app/
	-->
  <title>未命名 2</title>
  <desc>Drawing exported from Concepts: Smarter Sketching</desc>
  <defs></defs>
  <g id="钢笔" opacity="1.000">
    <path id="STROKE_48054d19-82f7-47d6-994d-31f77bdc1f01" opacity="1.000" fill="none" stroke="#000000" stroke-width="1.000" stroke-opacity="1.000" stroke-linecap="round" stroke-linejoin="round" d="M -203.722 707.759 Q -204.818 707.760 -204.439 707.760 Q -205.224 707.369 -204.974 707.494 Q -205.015 707.598 -205.185 707.475 Q -205.355 707.353 -206.833 707.390 Q -208.310 707.427 -209.135 707.598 Q -209.959 707.768 -210.369 707.891 Q -210.779 708.013 -211.090 708.088 Q -211.402 708.163 -211.967 708.360 Q -212.532 708.558 -213.284 709.049 Q -214.036 709.541 -214.803 710.175 Q -215.569 710.810 -216.661 711.680 Q -217.753 712.550 -218.617 713.257 Q -219.481 713.964 -220.379 714.849 Q -221.276 715.735 -221.770 716.379 Q -222.263 717.023 -222.543 717.463 Q -222.823 717.904 -222.926 718.064 Q -223.029 718.224 -223.250 718.620 Q -223.471 719.015 -223.780 719.638 Q -224.088 720.261 -224.222 720.523 Q -224.355 720.785 -224.495 721.147 Q -224.635 721.508 -224.552 721.341 Q -224.469 721.174 -224.978 722.267 Q -225.486 723.360 -225.726 724.384 Q -225.965 725.407 -226.105 726.725 Q -226.245 728.042 -226.337 729.094 Q -226.429 730.147 -226.495 731.327 Q -226.562 732.508 -226.309 734.731 Q -226.056 736.955 -225.809 738.026 Q -225.562 739.098 -225.351 739.534 Q -225.140 739.970 -225.111 740.006 Q -225.083 740.042 -225.086 740.035 Q -225.090 740.028 -224.771 740.936 Q -224.453 741.845 -224.260 742.251 Q -224.067 742.658 -223.755 743.100 Q -223.443 743.542 -223.552 743.388 Q -223.661 743.233 -223.299 743.772 Q -222.938 744.312 -222.685 744.692 Q -222.432 745.072 -222.250 745.344 Q -222.067 745.617 -221.822 745.989 Q -221.577 746.360 -221.511 746.418 Q -221.445 746.476 -221.348 746.543 Q -221.252 746.609 -220.918 747.235 Q -220.585 747.861 -219.362 749.092 Q -218.140 750.324 -217.304 750.875 Q -216.469 751.425 -216.067 751.738 Q -215.666 752.051 -215.764 751.979 Q -215.861 751.906 -215.739 751.995 Q -215.616 752.083 -215.748 751.990 Q -215.879 751.897 -215.457 752.220 Q -215.034 752.544 -214.660 752.770 Q -214.286 752.996 -213.956 753.165 Q -213.626 753.335 -213.526 753.382 Q -213.425 753.429 -213.415 753.405 Q -213.405 753.380 -213.137 753.692 Q -212.868 754.003 -211.995 754.526 Q -211.121 755.048 -210.570 755.253 Q -210.018 755.458 -209.698 755.481 Q -209.379 755.504 -209.298 755.549 Q -209.217 755.594 -209.357 755.551 Q -209.498 755.508 -209.096 755.649 Q -208.695 755.789 -208.329 755.865 Q -207.963 755.942 -207.918 755.964 Q -207.872 755.986 -207.498 756.114 Q -207.124 756.242 -207.143 756.231 Q -207.161 756.220 -206.990 756.215 Q -206.819 756.211 -207.034 756.225 Q -207.249 756.239 -206.070 756.372 Q -204.891 756.504 -203.977 756.559 Q -203.062 756.615 -202.651 756.648 Q -202.239 756.682 -201.924 756.673 Q -201.610 756.663 -201.588 756.667 Q -201.567 756.670 -201.460 756.650 Q -201.353 756.629 -201.389 756.619 Q -201.425 756.608 -199.460 756.658 Q -197.494 756.708 -196.157 756.684 Q -194.820 756.660 -193.929 756.317 Q -193.038 755.974 -192.583 755.803 Q -192.128 755.633 -191.819 755.528 Q -191.510 755.422 -191.585 755.441 Q -191.660 755.460 -191.533 755.415 Q -191.406 755.370 -191.558 755.416 Q -191.709 755.463 -191.277 755.331 Q -190.844 755.200 -190.492 755.013 Q -190.140 754.827 -189.699 754.468 Q -189.258 754.110 -189.277 754.122 Q -189.297 754.134 -189.243 754.080 Q -189.188 754.027 -189.254 754.091 Q -189.319 754.156 -189.189 754.026 Q -189.060 753.897 -188.641 753.477 Q -188.222 753.057 -188.259 753.090 Q -188.297 753.124 -188.305 753.134 Q -188.314 753.144 -188.274 753.108 Q -188.234 753.071 -188.289 753.127 Q -188.344 753.182 -187.975 752.814 Q -187.606 752.445 -187.539 752.377 Q -187.472 752.309 -187.470 752.308 Q -187.468 752.308 -187.238 752.076 Q -187.008 751.845 -187.072 751.910 Q -187.137 751.974 -187.077 751.887 Q -187.017 751.799 -186.683 751.516 Q -186.348 751.232 -186.402 751.149 Q -185.859 750.514 -186.043 750.701 Q -185.886 750.423 -185.863 750.431 Q -184.998 749.310 -185.325 749.713 Q -185.185 749.368 -185.258 749.631 Q -185.330 749.894 -184.614 748.789 Q -183.898 747.684 -183.070 745.891 Q -182.241 744.098 -181.870 743.169 Q -181.499 742.239 -181.387 741.910 Q -181.275 741.581 -181.157 741.256 Q -181.040 740.932 -180.962 740.721 Q -180.884 740.509 -180.892 740.535 Q -180.900 740.561 -180.886 740.503 Q -180.871 740.445 -180.876 740.439 Q -180.881 740.432 -180.749 740.168 Q -180.618 739.904 -180.442 738.979 Q -180.267 738.054 -180.212 737.177 Q -180.157 736.301 -180.111 735.916 Q -180.064 735.531 -180.071 735.156 Q -180.078 734.781 -180.073 734.838 Q -180.068 734.894 -180.067 734.899 Q -180.066 734.904 -180.074 734.756 Q -180.083 734.607 -180.072 734.747 Q -180.060 734.886 -180.147 734.079 Q -180.233 733.271 -180.243 732.540 Q -180.254 731.809 -180.254 731.871 Q -180.255 731.932 -180.255 731.927 Q -180.254 731.922 -180.255 731.617 Q -180.256 731.312 -180.255 731.256 Q -180.254 731.200 -180.277 731.226 Q -180.515 730.310 -180.434 730.508 Q -180.421 730.505 -180.461 730.392 Q -180.502 730.278 -180.682 729.347 Q -180.863 728.415 -180.934 727.772 Q -181.006 727.129 -181.019 727.079 Q -181.033 727.029 -181.033 727.032 Q -181.034 727.035 -181.046 726.984 Q -181.058 726.933 -181.082 726.849 Q -181.106 726.764 -181.160 726.485 Q -181.215 726.205 -181.192 726.290 Q -181.168 726.374 -181.314 725.843 Q -181.460 725.311 -181.446 725.378 Q -181.432 725.445 -181.414 725.477 Q -181.396 725.510 -181.572 724.713 Q -181.749 723.917 -181.820 723.564 Q -181.892 723.212 -181.970 722.914 Q -182.048 722.615 -182.072 722.591 Q -182.097 722.567 -182.080 722.605 Q -182.063 722.643 -182.159 722.367 Q -182.255 722.091 -182.338 721.907 Q -182.421 721.724 -182.511 721.526 Q -182.602 721.329 -182.515 721.567 Q -182.428 721.804 -182.645 721.137 Q -182.862 720.470 -183.191 719.658 Q -183.520 718.846 -183.523 718.869 Q -183.525 718.892 -183.508 718.932 Q -183.661 718.578 -183.642 718.573 Q -183.776 718.321 -183.753 718.358 Q -183.730 718.396 -183.704 718.398 Q -183.677 718.401 -183.973 717.901 Q -184.269 717.402 -184.194 717.554 Q -184.120 717.707 -184.251 717.352 Q -184.382 716.997 -184.683 716.561 Q -184.984 716.125 -185.716 715.261 Q -186.448 714.397 -186.866 713.993 Q -187.285 713.590 -187.333 713.538 Q -187.380 713.486 -187.411 713.456 Q -187.442 713.426 -187.347 713.516 Q -187.252 713.607 -187.685 713.181 Q -188.118 712.756 -188.443 712.422 Q -188.768 712.088 -188.754 712.106 Q -188.740 712.125 -188.726 712.138 Q -188.712 712.151 -188.823 712.069 Q -188.933 711.987 -188.806 712.068 Q -188.678 712.148 -189.360 711.595 Q -190.042 711.042 -190.264 710.806 Q -190.486 710.570 -190.485 710.570 Q -190.485 710.569 -190.559 710.550 Q -190.634 710.531 -190.546 710.555 Q -190.459 710.579 -190.496 710.570 Q -190.534 710.561 -190.559 710.545 Q -190.583 710.530 -190.693 710.483 Q -190.804 710.436 -190.947 710.362 Q -191.090 710.288 -191.474 710.099 Q -191.859 709.909 -192.145 709.772 Q -192.430 709.636 -192.351 709.673 Q -192.272 709.709 -192.258 709.733 Q -193.255 709.217 -193.080 709.316 Q -192.905 709.415 -193.100 709.319 Q -193.294 709.223 -193.155 709.275 Q -193.015 709.327 -193.352 709.227 Q -193.689 709.128 -193.817 709.071 Q -193.944 709.013 -194.195 708.902 Q -194.446 708.791 -194.466 708.775 Q -194.486 708.760 -194.565 708.757 Q -194.644 708.754 -194.528 708.774 Q -194.412 708.794 -194.435 708.788 Q -194.458 708.782 -194.448 708.784 Q -194.439 708.786 -194.452 708.782 Q -194.464 708.779 -194.579 708.736 Q -194.693 708.693 -195.334 708.516 Q -195.975 708.339 -195.941 708.349 Q -195.907 708.359 -195.892 708.387 Q -196.546 708.167 -196.341 708.207 Q -196.525 708.101 -196.516 708.112 Q -196.508 708.122 -196.609 708.109 Q -196.710 708.095 -196.571 708.086 Q -196.433 708.077 -196.888 708.005 Q -197.343 707.933 -197.739 707.880 Q -198.136 707.827 -198.071 707.841 Q -198.007 707.856 -198.076 707.848 Q -198.145 707.840 -198.411 707.816 Q -198.677 707.793 -198.721 707.781 Q -198.765 707.769 -198.766 707.756 Q -198.767 707.742 -198.745 707.758 Q -198.724 707.775 -199.004 707.769 Q -199.284 707.763 -199.724 707.709 Q -200.165 707.655 -200.541 707.664 Q -200.917 707.673 -200.933 707.670 Q -200.948 707.668 -200.828 707.668 Q -200.709 707.669 -200.993 707.669 Q -201.277 707.669 -201.426 707.669 Q -201.574 707.669 -201.546 707.669 Q -202.709 707.669 -202.286 707.669 Q -203.235 707.669 -202.959 707.669 Q -204.090 707.670 -203.699 707.670 Q -204.449 707.721 -204.489 707.725 Q -204.530 707.730 -204.506 707.716 Q -205.530 707.719 -205.265 707.721 Q -205.504 707.826 -206.334 707.865 Q -207.164 707.903 -208.534 707.948 Q -209.904 707.992 -211.540 708.447 Q -213.175 708.902 -214.826 710.171 "></path>
    <path id="STROKE_2ef17389-0002-45d2-8692-cfd4d20e99ae" opacity="1.000" fill="none" stroke="#000000" stroke-width="1.000" stroke-opacity="1.000" stroke-linecap="round" stroke-linejoin="round" d="M -225.934 730.778 Q -225.821 730.764 -225.595 730.792 Q -225.369 730.821 -224.194 730.804 Q -223.019 730.787 -222.630 730.751 Q -222.240 730.714 -221.955 730.655 Q -221.669 730.595 -221.216 730.605 Q -220.762 730.614 -220.589 730.580 Q -220.416 730.546 -219.400 730.381 Q -218.384 730.216 -217.866 730.186 Q -217.347 730.156 -217.125 730.113 Q -216.903 730.069 -216.804 730.063 Q -216.704 730.056 -216.771 730.068 Q -216.838 730.081 -216.391 730.031 Q -215.944 729.982 -215.155 729.973 Q -214.366 729.963 -213.978 729.968 Q -213.591 729.972 -213.279 729.971 Q -212.968 729.969 -212.961 729.970 Q -212.955 729.970 -212.551 729.970 Q -212.148 729.970 -212.203 729.970 Q -212.258 729.970 -211.788 729.972 Q -211.317 729.974 -211.455 729.959 Q -211.594 729.943 -210.830 730.016 Q -210.066 730.089 -209.239 730.096 Q -208.411 730.103 -208.049 730.120 Q -207.686 730.137 -207.240 730.176 Q -206.794 730.215 -206.544 730.267 Q -206.295 730.318 -206.307 730.307 Q -206.318 730.297 -206.296 730.302 Q -206.273 730.306 -205.902 730.345 Q -205.532 730.384 -205.625 730.393 Q -205.719 730.402 -205.373 730.399 Q -205.027 730.396 -204.208 730.507 Q -203.390 730.618 -202.910 730.604 Q -202.430 730.591 -202.190 730.596 Q -201.950 730.602 -201.728 730.599 Q -201.506 730.597 -201.545 730.598 Q -201.585 730.598 -201.383 730.601 Q -201.181 730.603 -200.162 730.596 Q -199.143 730.588 -198.204 730.593 Q -197.265 730.597 -196.903 730.613 Q -196.541 730.628 -196.172 730.633 Q -195.804 730.639 -195.436 730.670 Q -195.068 730.701 -195.188 730.687 Q -195.308 730.672 -194.972 730.698 Q -194.636 730.725 -194.262 730.748 Q -193.889 730.771 -193.806 730.770 Q -193.723 730.768 -193.751 730.775 Q -193.778 730.782 -193.628 730.782 Q -193.478 730.783 -192.931 730.808 Q -192.384 730.834 -192.124 730.869 Q -191.865 730.903 -191.700 730.910 Q -191.536 730.917 -191.299 730.914 Q -191.063 730.911 -190.940 730.912 Q -190.817 730.913 -190.749 730.899 Q -190.680 730.885 -190.893 730.922 Q -191.106 730.958 -188.511 731.033 Q -185.915 731.107 -184.638 731.079 Q -183.360 731.051 -182.619 731.018 Q -181.878 730.984 -181.665 730.996 Q -181.452 731.008 -181.432 731.004 Q -181.411 731.000 -181.476 731.001 Q -181.541 731.003 -181.037 731.002 Q -180.533 731.002 -179.896 731.002 Q -180.104 730.690 -181.152 729.835 "></path>
    <path id="STROKE_289ce4c6-680b-4977-84d5-697bf09fd248" opacity="1.000" fill="none" stroke="#000000" stroke-width="1.000" stroke-opacity="1.000" stroke-linecap="round" stroke-linejoin="round" d="M -202.421 707.041 Q -202.713 707.162 -202.690 707.198 Q -202.713 707.220 -202.915 707.287 Q -202.899 707.394 -203.233 707.507 Q -203.568 707.621 -203.685 707.660 Q -203.802 707.699 -203.771 707.687 Q -203.740 707.674 -203.798 707.724 Q -203.856 707.774 -204.341 707.969 Q -204.825 708.164 -205.254 708.481 Q -205.683 708.797 -206.008 709.115 Q -206.333 709.432 -206.482 709.587 Q -206.630 709.742 -206.587 709.700 Q -206.543 709.658 -206.571 709.744 Q -206.599 709.829 -206.657 709.705 Q -206.715 709.580 -208.054 712.087 Q -209.392 714.593 -210.059 716.033 Q -210.725 717.473 -211.023 718.125 Q -211.322 718.777 -211.410 718.991 Q -211.499 719.206 -211.462 719.167 Q -211.424 719.128 -211.449 719.075 Q -211.473 719.022 -211.984 720.228 Q -212.494 721.434 -212.757 722.470 Q -213.019 723.505 -213.148 724.152 Q -213.277 724.799 -213.418 725.500 Q -213.559 726.201 -213.617 726.680 Q -213.674 727.158 -213.765 727.442 Q -213.856 727.727 -213.885 728.363 Q -213.914 728.999 -214.022 729.862 Q -214.131 730.725 -214.133 731.213 Q -214.136 731.701 -214.114 731.819 Q -214.092 731.938 -214.127 732.322 Q -214.162 732.707 -214.171 734.327 Q -214.180 735.947 -214.092 736.959 Q -214.003 737.971 -213.875 738.281 Q -213.746 738.591 -213.712 738.883 Q -213.678 739.176 -213.647 739.303 Q -213.617 739.430 -213.564 739.375 Q -213.511 739.320 -213.543 740.106 Q -213.574 740.891 -213.464 741.741 Q -213.353 742.592 -213.245 743.032 Q -213.137 743.472 -213.036 743.860 Q -212.935 744.248 -212.922 744.232 Q -212.909 744.217 -212.912 744.193 Q -212.916 744.169 -212.861 744.444 Q -212.807 744.720 -212.740 745.128 Q -212.674 745.536 -212.589 745.965 Q -212.504 746.394 -212.498 746.392 Q -212.492 746.390 -212.491 746.397 Q -212.490 746.404 -212.496 746.364 Q -212.501 746.323 -212.446 746.586 Q -212.392 746.848 -212.291 747.167 Q -212.189 747.487 -212.196 747.473 Q -212.202 747.459 -212.209 747.442 Q -212.215 747.424 -212.200 747.449 Q -212.184 747.474 -212.150 747.564 Q -212.117 747.654 -211.961 748.006 Q -211.805 748.358 -211.701 748.625 Q -211.598 748.891 -211.493 749.086 Q -211.388 749.280 -211.417 749.227 Q -211.446 749.173 -211.440 749.175 Q -211.283 749.712 -211.261 749.601 Q -211.246 749.661 -211.309 749.598 Q -211.372 749.535 -211.319 749.678 Q -211.265 749.822 -211.247 749.841 Q -211.229 749.861 -211.231 749.860 Q -211.234 749.859 -210.805 750.411 Q -210.377 750.963 -210.408 750.970 Q -209.982 751.432 -210.094 751.329 Q -209.979 751.690 -209.959 751.665 Q -209.858 751.867 -209.600 752.275 Q -209.342 752.683 -209.354 752.674 Q -209.366 752.664 -209.286 752.792 Q -209.206 752.920 -209.071 753.157 Q -208.937 753.394 -208.878 753.522 Q -208.818 753.649 -208.886 753.545 Q -208.953 753.442 -208.743 753.700 Q -208.533 753.959 -208.503 753.993 Q -208.474 754.027 -208.453 754.049 Q -208.432 754.071 -208.482 754.032 Q -208.531 753.992 -208.208 754.483 Q -207.885 754.975 -207.896 754.972 Q -207.908 754.970 -207.940 754.896 Q -207.492 755.489 -207.626 755.300 Q -207.215 755.940 -207.357 755.704 Q -207.312 755.749 -207.132 755.816 Q -207.132 755.838 -207.132 756.018 Q -207.088 756.040 -206.953 756.063 Q -206.799 756.448 -206.684 756.668 Q -206.639 756.668 -206.594 756.691 L -206.594 756.713 Q -206.549 756.713 -206.504 756.713 Q -206.504 756.736 -206.504 756.758 Q -205.371 757.131 -205.786 756.983 Q -205.741 756.983 -205.248 757.005 Q -205.248 757.050 -205.248 757.072 Q -205.002 757.044 -205.032 757.049 Q -205.062 757.053 -205.048 757.079 Q -205.033 757.105 -204.933 757.035 Q -204.833 756.964 -204.799 756.713 "></path>
    <path id="STROKE_566f43a8-bebe-473d-9849-dde18e6ce167" opacity="1.000" fill="none" stroke="#000000" stroke-width="1.000" stroke-opacity="1.000" stroke-linecap="round" stroke-linejoin="round" d="M -203.229 706.995 Q -203.229 707.018 -203.229 707.175 Q -203.018 707.253 -202.972 707.279 Q -202.927 707.305 -202.976 707.265 Q -203.025 707.224 -203.047 707.219 Q -203.068 707.213 -202.609 707.459 Q -202.150 707.704 -202.197 707.624 Q -201.497 708.134 -201.748 707.960 Q -201.663 708.046 -201.397 708.234 Q -201.130 708.422 -201.139 708.405 Q -201.147 708.388 -200.933 708.503 Q -200.719 708.618 -200.799 708.574 Q -200.879 708.530 -200.809 708.580 Q -200.739 708.630 -200.333 708.929 Q -199.928 709.228 -200.083 709.105 Q -200.238 708.982 -199.892 709.196 Q -199.545 709.411 -199.114 709.757 Q -198.682 710.103 -198.711 710.089 Q -198.739 710.074 -198.786 710.030 Q -198.834 709.986 -198.663 710.155 Q -198.493 710.324 -198.299 710.504 Q -198.105 710.684 -197.852 710.920 Q -197.599 711.157 -197.664 711.101 Q -197.307 711.459 -197.351 711.415 Q -196.892 711.940 -196.992 711.819 Q -196.416 712.287 -196.543 712.201 Q -196.208 712.568 -196.273 712.492 Q -196.326 712.291 -195.992 713.211 Q -195.658 714.132 -195.428 714.677 Q -195.197 715.223 -194.942 715.724 Q -194.688 716.226 -194.612 716.372 Q -194.537 716.519 -194.573 716.460 Q -194.609 716.401 -194.536 716.556 Q -194.462 716.712 -194.175 717.243 Q -193.889 717.774 -193.795 718.095 Q -193.702 718.415 -193.638 718.606 Q -193.575 718.797 -193.559 718.860 Q -193.543 718.923 -193.439 719.286 Q -193.334 719.650 -193.286 719.829 Q -193.238 720.008 -193.130 720.263 Q -193.022 720.517 -193.006 720.600 Q -192.990 720.682 -193.000 720.610 Q -193.011 720.539 -192.969 720.725 Q -192.927 720.911 -192.583 722.064 Q -192.239 723.217 -192.126 723.705 Q -192.014 724.192 -191.909 724.482 Q -191.805 724.771 -191.819 724.776 Q -191.833 724.782 -191.842 724.726 Q -191.850 724.670 -191.851 724.698 Q -191.851 724.726 -191.857 724.713 Q -191.863 724.701 -191.829 724.828 Q -191.795 724.954 -191.840 724.794 Q -191.885 724.634 -191.839 724.862 Q -191.794 725.090 -191.666 725.778 Q -191.538 726.465 -191.530 726.378 Q -191.521 726.291 -191.514 726.381 Q -191.507 726.470 -191.520 726.345 Q -191.533 726.220 -191.440 726.584 Q -191.348 726.947 -191.245 727.411 Q -191.141 727.876 -191.137 727.867 Q -191.133 727.859 -191.137 727.857 Q -191.141 727.854 -191.131 727.882 Q -191.121 727.910 -191.040 728.210 Q -190.960 728.511 -190.926 728.597 Q -190.892 728.684 -190.939 728.675 Q -190.985 728.667 -190.907 729.233 Q -190.828 729.799 -190.747 730.238 Q -190.666 730.676 -190.621 730.942 Q -190.575 731.207 -190.574 731.264 Q -190.573 731.320 -190.574 731.275 Q -190.576 731.230 -190.575 731.447 Q -190.575 731.664 -190.575 732.837 Q -190.575 734.010 -190.575 734.464 Q -190.575 734.918 -190.575 735.251 Q -190.575 735.584 -190.575 735.560 Q -190.575 735.537 -190.592 735.636 Q -190.609 735.735 -190.572 735.594 Q -190.535 735.453 -190.581 736.478 Q -190.628 737.503 -190.707 737.961 Q -190.786 738.419 -190.866 739.121 Q -190.947 739.823 -190.971 740.170 Q -190.995 740.517 -190.994 740.453 Q -190.993 740.389 -191.089 740.705 Q -191.185 741.021 -191.199 741.098 Q -191.214 741.176 -191.206 741.138 Q -191.198 741.101 -191.198 741.098 Q -191.198 741.094 -191.210 741.231 Q -191.223 741.367 -191.193 741.257 Q -191.163 741.147 -191.231 741.639 Q -191.298 742.132 -191.395 742.411 Q -191.493 742.691 -191.482 742.679 Q -191.471 742.667 -191.483 742.754 Q -191.494 742.842 -191.470 742.725 Q -191.447 742.608 -191.502 743.001 Q -191.557 743.394 -191.645 743.675 Q -191.733 743.955 -191.857 744.418 Q -191.981 744.880 -192.061 745.249 Q -192.142 745.618 -192.151 745.645 Q -192.159 745.671 -192.172 745.700 Q -192.186 745.729 -192.261 746.004 Q -192.337 746.279 -192.337 746.274 Q -192.337 746.268 -192.361 746.330 Q -192.386 746.391 -192.399 746.444 Q -192.412 746.497 -192.402 746.548 Q -192.393 746.600 -192.720 747.460 Q -193.046 748.320 -193.228 748.806 Q -193.409 749.291 -193.544 749.610 Q -193.679 749.928 -193.666 749.909 Q -193.653 749.889 -193.651 749.879 Q -193.649 749.868 -193.730 750.058 Q -193.812 750.248 -194.027 750.823 Q -194.241 751.397 -194.221 751.351 Q -194.201 751.305 -194.165 751.261 Q -194.034 751.031 -194.298 751.510 Q -194.562 751.988 -194.750 752.403 Q -194.937 752.819 -194.888 752.740 Q -194.839 752.662 -194.915 752.787 Q -194.992 752.912 -194.903 752.737 Q -194.815 752.561 -195.079 752.953 Q -195.343 753.346 -195.527 753.745 Q -195.710 754.145 -195.703 754.118 Q -195.697 754.090 -195.696 754.117 Q -195.696 754.143 -195.726 754.191 Q -195.756 754.238 -195.703 754.192 Q -195.651 754.145 -195.789 754.341 Q -195.928 754.537 -196.105 754.808 Q -196.282 755.078 -196.437 755.341 Q -196.591 755.603 -196.598 755.570 Q -196.604 755.537 -196.696 755.614 Q -196.787 755.690 -196.738 755.610 Q -196.688 755.529 -196.992 755.896 Q -197.295 756.263 -197.683 756.667 Q -198.071 757.072 -197.973 756.980 Q -197.874 756.889 -197.968 756.973 Q -198.061 757.057 -197.920 756.935 Q -197.778 756.814 -198.428 757.341 Q -197.898 756.869 -197.889 754.515 "></path>
  </g>
</svg>