<?xml version="1.0" encoding="UTF-8" standalone="yes"?>
<svg xmlns="http://www.w3.org/2000/svg" xmlns:xlink="http://www.w3.org/1999/xlink" width="74.520px" height="96.435px" version="1.1" viewBox="-320.360 895.242 49.680 64.290">
  <!--
	Exported with Concepts: Smarter Sketching
	Version: 2023.03.3 on Android 16
	https://concepts.app/
	-->
  <title>未命名 2</title>
  <desc>Drawing exported from Concepts: Smarter Sketching</desc>
  <defs></defs>
  <g id="钢笔" opacity="1.000">
    <path id="STROKE_7635b883-daed-4ffa-b75d-53e0de9b54ae" opacity="1.000" fill="none" stroke="#000000" stroke-width="1.000" stroke-opacity="1.000" stroke-linecap="round" stroke-linejoin="round" d="M -318.602 916.380 Q -318.602 916.537 -318.602 915.842 Q -318.557 915.842 -318.333 915.954 Q -318.144 916.296 -318.186 916.188 Q -318.227 916.079 -318.076 916.384 Q -317.925 916.688 -317.797 916.973 Q -317.669 917.257 -317.707 917.182 Q -317.744 917.107 -317.638 917.506 Q -317.531 917.905 -317.554 917.786 Q -317.578 917.668 -317.093 920.575 Q -316.608 923.482 -316.227 926.566 Q -315.846 929.650 -315.747 931.060 Q -315.648 932.471 -315.596 933.037 Q -315.544 933.603 -315.534 933.905 Q -315.525 934.208 -315.464 934.239 Q -315.403 934.271 -315.467 934.247 Q -315.532 934.224 -315.400 934.361 Q -315.269 934.498 -314.955 934.724 Q -314.642 934.950 -314.689 934.927 Q -314.735 934.903 -314.724 934.914 Q -314.714 934.926 -314.527 935.071 Q -314.341 935.216 -314.162 935.283 Q -313.982 935.350 -313.969 935.327 Q -313.955 935.303 -313.796 935.274 Q -313.636 935.245 -313.690 935.407 Q -313.743 935.569 -312.140 935.499 Q -310.536 935.429 -309.545 935.248 Q -308.554 935.066 -308.010 934.967 Q -307.466 934.867 -307.290 934.849 Q -307.114 934.830 -306.648 934.812 Q -306.183 934.795 -305.581 934.717 Q -304.980 934.639 -304.678 934.640 Q -304.376 934.641 -304.141 934.634 Q -303.905 934.627 -303.646 934.646 Q -303.386 934.666 -302.421 934.657 Q -301.456 934.648 -301.101 934.628 Q -300.746 934.608 -300.158 934.519 Q -299.570 934.430 -299.000 934.303 Q -298.431 934.177 -298.382 934.190 Q -298.333 934.203 -298.334 934.193 Q -298.334 934.184 -298.256 934.190 Q -298.178 934.196 -298.468 934.201 Q -298.758 934.207 -296.794 934.105 Q -296.578 933.226 -296.615 933.409 Q -296.052 932.073 -295.924 928.812 Q -295.796 925.551 -295.505 923.234 Q -295.214 920.916 -295.114 919.967 Q -295.015 919.018 -295.004 918.692 Q -294.993 918.365 -294.997 918.397 Q -295.002 918.429 -295.013 918.400 Q -295.023 918.372 -294.952 918.138 Q -294.880 917.905 -295.291 915.303 L -295.336 915.303 Q -295.358 915.258 -295.381 915.214 Q -295.402 915.282 -295.585 915.191 Q -295.769 915.100 -296.631 915.089 Q -297.492 915.079 -297.947 915.149 Q -298.402 915.220 -298.688 915.219 Q -298.973 915.217 -299.077 915.239 Q -299.180 915.262 -299.057 915.297 Q -298.934 915.333 -300.193 915.364 Q -301.451 915.396 -302.359 915.430 Q -303.267 915.465 -303.736 915.500 Q -304.205 915.534 -304.522 915.558 Q -304.840 915.582 -304.750 915.571 Q -304.659 915.560 -305.439 915.589 Q -306.218 915.619 -306.850 915.618 Q -307.481 915.617 -307.770 915.617 Q -308.058 915.617 -308.399 915.617 Q -308.740 915.617 -308.925 915.617 Q -309.110 915.617 -309.180 915.655 Q -309.251 915.693 -309.211 915.624 Q -309.170 915.555 -310.245 915.616 Q -311.320 915.677 -312.384 916.040 Q -313.448 916.403 -314.211 916.600 Q -314.974 916.796 -315.284 916.854 Q -315.595 916.911 -315.550 916.874 Q -316.580 916.949 -316.179 916.919 Q -316.201 916.919 -316.403 916.919 Q -316.358 916.919 -316.134 916.874 L -316.134 916.829 "></path>
    <path id="STROKE_0bbf76d9-5136-46ba-9aee-63c53e9fd54e" opacity="1.000" fill="none" stroke="#000000" stroke-width="1.000" stroke-opacity="1.000" stroke-linecap="round" stroke-linejoin="round" d="M -286.115 934.149 Q -286.045 934.482 -286.272 933.072 Q -287.255 932.387 -286.900 932.624 Q -286.123 932.496 -287.377 932.516 Q -288.632 932.537 -289.427 932.459 Q -290.221 932.381 -290.640 932.545 Q -291.059 932.708 -291.162 932.768 Q -291.264 932.827 -291.421 932.906 Q -291.578 932.985 -291.785 933.094 Q -291.991 933.202 -292.201 933.376 Q -292.412 933.549 -292.344 933.503 Q -292.276 933.457 -292.689 933.742 Q -293.102 934.028 -293.217 934.201 Q -293.332 934.374 -294.057 935.096 Q -294.782 935.818 -295.073 936.208 Q -295.364 936.597 -295.458 936.702 Q -295.551 936.807 -295.685 937.107 Q -295.820 937.407 -295.921 937.624 Q -296.022 937.840 -296.020 937.820 Q -296.018 937.800 -295.990 937.761 Q -295.961 937.723 -296.326 938.421 Q -296.690 939.119 -297.055 939.935 Q -297.420 940.751 -297.537 941.176 Q -297.654 941.602 -297.713 941.844 Q -297.772 942.086 -297.749 941.996 Q -297.725 941.905 -297.773 942.009 Q -297.821 942.114 -297.898 942.413 Q -297.974 942.712 -297.994 943.147 Q -298.014 943.583 -298.008 943.472 Q -298.003 943.360 -298.005 943.685 Q -298.007 944.009 -298.006 944.409 Q -298.006 944.808 -298.005 945.258 Q -298.004 945.708 -297.985 945.648 Q -297.966 945.588 -298.018 945.768 Q -298.070 945.947 -297.770 947.014 Q -297.471 948.081 -297.057 948.955 Q -296.644 949.828 -296.370 950.273 Q -296.096 950.717 -296.091 950.907 Q -296.086 951.097 -295.722 951.502 Q -295.358 951.906 -295.118 952.246 Q -294.878 952.587 -294.828 952.618 Q -294.779 952.650 -294.756 952.658 Q -294.733 952.666 -294.843 952.655 Q -294.954 952.643 -294.185 953.511 Q -293.417 954.379 -292.854 954.851 Q -292.291 955.324 -291.971 955.532 Q -291.651 955.740 -291.814 955.658 Q -291.977 955.576 -291.586 955.730 Q -291.194 955.883 -290.448 956.260 Q -289.702 956.637 -289.031 956.848 Q -288.359 957.059 -288.001 957.226 Q -287.643 957.393 -287.630 957.402 Q -287.618 957.412 -287.225 957.470 Q -286.832 957.529 -286.190 957.629 Q -285.547 957.728 -284.642 957.745 Q -283.736 957.761 -283.508 957.755 Q -283.279 957.749 -282.941 957.751 Q -282.603 957.752 -282.549 957.715 Q -282.495 957.678 -282.612 957.785 Q -282.728 957.892 -281.490 957.301 Q -280.252 956.710 -279.256 956.048 Q -278.259 955.387 -277.877 955.038 Q -277.495 954.689 -277.179 954.451 Q -276.862 954.212 -276.889 954.231 Q -276.916 954.250 -276.845 954.188 Q -276.773 954.125 -276.874 954.209 Q -276.975 954.293 -276.519 954.040 Q -276.064 953.787 -275.392 952.910 Q -274.721 952.033 -274.482 951.560 Q -274.243 951.088 -274.078 950.859 Q -273.914 950.631 -273.927 950.648 Q -273.940 950.664 -273.670 950.264 Q -273.399 949.865 -273.397 949.824 Q -273.394 949.783 -273.367 949.734 Q -273.339 949.684 -273.364 949.729 Q -273.389 949.774 -273.231 949.387 Q -273.073 949.001 -272.919 948.679 Q -272.765 948.357 -272.644 947.990 Q -272.522 947.623 -272.534 947.701 Q -272.546 947.779 -272.544 947.776 Q -272.542 947.773 -272.544 947.644 Q -272.546 947.516 -272.528 947.659 Q -272.510 947.803 -272.465 946.538 Q -272.419 945.273 -272.448 944.350 Q -272.477 943.427 -272.615 943.048 Q -272.752 942.670 -272.831 942.378 Q -272.909 942.085 -272.905 942.085 Q -272.901 942.086 -272.927 941.998 Q -272.952 941.911 -272.912 942.041 Q -272.872 942.171 -272.982 941.627 Q -273.092 941.082 -273.932 939.444 Q -274.138 939.397 -274.345 938.761 Q -274.553 938.125 -274.634 937.937 Q -274.716 937.748 -274.724 937.760 Q -274.732 937.771 -274.708 937.784 Q -274.685 937.797 -274.696 937.797 Q -274.707 937.798 -275.027 937.392 Q -275.348 936.987 -275.383 936.949 Q -275.418 936.911 -275.611 936.593 Q -275.803 936.276 -275.593 936.476 Q -275.382 936.676 -276.274 935.763 Q -277.165 934.849 -277.793 934.425 Q -278.422 934.000 -278.766 933.716 Q -279.110 933.432 -279.098 933.435 Q -279.086 933.437 -279.184 933.406 Q -279.282 933.375 -279.184 933.364 Q -279.085 933.354 -279.760 932.984 Q -280.435 932.614 -280.601 932.605 Q -280.768 932.596 -280.855 932.567 Q -280.942 932.539 -280.960 932.553 Q -280.978 932.567 -280.972 932.563 Q -280.965 932.560 -280.927 932.548 Q -280.889 932.536 -280.913 932.542 Q -280.937 932.548 -280.982 932.533 Q -281.027 932.518 -281.155 932.493 Q -281.283 932.468 -281.655 932.378 Q -282.027 932.287 -282.422 932.027 Q -282.817 931.768 -282.721 931.828 Q -282.625 931.889 -282.615 931.906 Q -281.974 931.873 -283.129 931.776 Q -284.284 931.680 -285.161 931.634 Q -286.038 931.588 -286.472 931.743 Q -286.907 931.898 -286.968 931.904 Q -287.030 931.910 -287.023 931.897 Q -287.015 931.883 -287.158 932.061 Q -287.301 932.239 -290.019 932.489 "></path>
    <path id="STROKE_a0a66da3-1d63-4dd1-a864-0ff478621cf7" opacity="1.000" fill="none" stroke="#000000" stroke-width="1.000" stroke-opacity="1.000" stroke-linecap="round" stroke-linejoin="round" d="M -294.775 898.252 Q -294.797 898.274 -294.842 898.319 Q -295.261 899.097 -295.156 898.858 Q -295.429 899.250 -295.381 899.262 Q -295.716 900.216 -295.645 900.006 Q -295.573 899.796 -295.730 900.268 Q -295.888 900.740 -295.915 900.795 Q -295.943 900.850 -296.379 901.567 Q -296.815 902.283 -297.056 902.762 Q -297.297 903.240 -297.411 903.424 Q -297.526 903.608 -297.501 903.577 Q -297.476 903.546 -297.498 903.591 Q -297.519 903.636 -297.820 904.257 Q -298.121 904.878 -299.233 906.983 Q -300.346 909.089 -300.792 910.013 Q -301.238 910.937 -301.674 911.902 Q -302.109 912.868 -302.431 913.478 Q -302.753 914.088 -302.862 914.357 Q -302.972 914.626 -303.079 914.881 Q -303.186 915.136 -303.153 915.112 Q -303.121 915.087 -303.139 915.018 Q -303.158 914.949 -303.277 915.273 Q -303.397 915.597 -303.474 916.003 Q -303.550 916.410 -303.535 916.292 Q -303.519 916.175 -303.523 916.268 Q -303.527 916.361 -303.526 916.262 Q -303.524 916.163 -303.525 916.308 Q -303.525 916.453 -303.525 916.192 Q -303.525 915.930 -303.525 917.547 "></path>
    <path id="STROKE_019f8bbd-7b92-4f60-81e5-81c16ab02461" opacity="1.000" fill="none" stroke="#000000" stroke-width="1.000" stroke-opacity="1.000" stroke-linecap="round" stroke-linejoin="round" d="M -294.012 897.265 Q -293.967 897.265 -293.922 897.265 Q -293.922 897.220 -293.922 897.085 Q -293.945 897.085 -294.192 896.996 Q -294.310 896.755 -293.619 897.901 Q -292.928 899.048 -291.552 901.781 Q -290.176 904.514 -289.507 906.237 Q -288.838 907.960 -288.407 908.832 Q -287.977 909.704 -287.670 910.470 Q -287.364 911.236 -287.010 912.310 Q -286.656 913.385 -286.483 913.817 Q -286.309 914.249 -285.831 915.642 Q -285.353 917.035 -284.776 918.658 Q -284.199 920.281 -283.721 921.366 Q -283.244 922.451 -282.800 923.290 Q -282.356 924.130 -282.119 924.610 Q -281.881 925.090 -281.854 925.244 Q -281.827 925.398 -281.633 925.858 Q -281.440 926.319 -281.268 926.648 Q -281.096 926.976 -280.956 927.224 Q -280.816 927.471 -280.757 927.602 Q -280.698 927.734 -280.671 927.803 Q -280.643 927.872 -280.672 927.840 Q -280.701 927.808 -280.627 928.059 Q -280.554 928.310 -280.214 928.889 Q -279.874 929.468 -279.653 930.335 Q -279.611 930.167 -279.586 930.252 Q -279.560 930.338 -279.299 930.920 Q -279.038 931.503 -279.054 931.423 Q -279.070 931.344 -279.094 931.305 Q -279.118 931.266 -279.044 931.423 Q -278.971 931.579 -278.801 931.906 Q -278.756 931.906 -278.711 931.928 Q -278.711 931.951 -278.711 932.018 Q -278.666 932.040 -278.621 932.040 Q -278.579 932.494 -278.531 932.399 Q -278.487 932.399 -278.262 932.422 Q -278.262 932.467 -278.262 932.713 Q -278.262 932.668 -278.262 932.534 Q -278.217 932.534 -278.172 932.534 "></path>
    <path id="STROKE_87181a24-214b-4426-80c6-a0e174889444" opacity="1.000" fill="none" stroke="#000000" stroke-width="1.000" stroke-opacity="1.000" stroke-linecap="round" stroke-linejoin="round" d="M -306.038 934.329 Q -306.038 934.284 -306.038 934.239 Q -306.247 934.699 -306.217 934.665 Q -306.232 934.750 -306.442 935.630 Q -306.986 935.848 -306.823 935.787 Q -307.156 935.691 -307.853 937.209 Q -308.550 938.727 -309.237 941.062 Q -309.924 943.397 -310.349 944.346 Q -310.774 945.296 -310.895 945.893 Q -311.015 946.490 -310.986 946.274 Q -310.956 946.058 -310.973 946.668 Q -310.973 946.624 -310.973 946.579 Q -310.973 946.601 -310.973 946.714 Q -310.853 946.995 -310.884 947.005 Q -310.884 947.028 -310.884 947.185 Q -310.839 947.207 -310.794 947.207 Q -310.794 947.229 -310.794 947.342 Q -310.633 947.341 -310.170 947.295 Q -309.708 947.250 -309.717 947.252 Q -308.676 947.321 -308.954 947.297 Q -308.376 947.297 -308.506 947.252 Q -308.691 947.166 -307.948 947.085 Q -307.206 947.004 -306.681 947.071 Q -306.157 947.139 -305.852 947.125 Q -305.548 947.112 -305.341 947.115 Q -305.134 947.119 -304.882 947.120 Q -304.629 947.121 -304.677 947.123 Q -304.724 947.125 -304.641 947.121 Q -304.557 947.117 -304.304 947.168 Q -304.050 947.220 -304.024 947.216 Q -303.999 947.211 -304.081 947.229 Q -304.163 947.248 -303.438 947.277 Q -302.713 947.307 -302.280 947.300 Q -301.848 947.293 -301.443 947.295 Q -301.039 947.298 -301.083 947.296 Q -301.127 947.295 -301.064 947.294 Q -301.001 947.293 -300.692 947.190 Q -300.383 947.088 -300.384 947.102 Q -300.386 947.115 -300.346 947.115 Q -300.307 947.115 -300.011 947.060 Q -299.715 947.005 -299.711 947.028 L -299.666 947.028 Q -299.666 946.983 -299.576 946.758 Q -299.463 946.714 -299.038 946.691 L -299.038 946.714 Q -298.993 946.714 -298.858 946.714 Q -298.858 946.668 -298.858 946.623 Q -298.813 946.623 -298.679 946.646 Q -298.679 946.668 -298.679 946.714 Q -298.679 946.668 -298.679 946.623 Q -298.634 946.623 -298.409 946.579 Q -298.409 946.534 -298.409 946.444 Q -298.160 946.416 -298.095 946.265 L -298.050 946.265 "></path>
  </g>
</svg>