<?xml version="1.0" encoding="UTF-8" standalone="yes"?>
<svg xmlns="http://www.w3.org/2000/svg" xmlns:xlink="http://www.w3.org/1999/xlink" width="80.226px" height="126.679px" version="1.1" viewBox="-240.001 817.931 53.484 84.453">
  <!--
	Exported with Concepts: Smarter Sketching
	Version: 2023.03.3 on Android 16
	https://concepts.app/
	-->
  <title>未命名 2</title>
  <desc>Drawing exported from Concepts: Smarter Sketching</desc>
  <defs></defs>
  <g id="钢笔" opacity="1.000">
    <path id="STROKE_e75cc344-03c8-4f07-a156-1f90f33a5302" opacity="1.000" fill="none" stroke="#000000" stroke-width="1.000" stroke-opacity="1.000" stroke-linecap="round" stroke-linejoin="round" d="M -195.263 835.804 Q -195.221 836.024 -195.318 835.906 Q -195.414 835.788 -195.334 835.857 Q -195.255 835.925 -195.323 835.872 Q -195.391 835.818 -195.337 835.831 Q -195.283 835.843 -195.300 835.844 Q -195.316 835.845 -195.533 835.624 Q -195.749 835.403 -195.991 834.971 Q -196.232 834.539 -196.450 834.036 Q -196.668 833.532 -196.818 833.134 Q -196.968 832.735 -197.054 832.691 Q -197.140 832.646 -197.023 832.799 Q -196.906 832.953 -197.996 830.544 Q -199.086 828.135 -200.770 825.734 Q -202.454 823.332 -203.902 822.347 Q -205.349 821.362 -206.626 820.855 Q -207.903 820.348 -208.693 820.089 Q -209.482 819.830 -210.094 819.892 Q -210.706 819.953 -210.666 819.986 Q -210.625 820.019 -210.667 819.907 Q -210.709 819.795 -212.965 820.048 Q -215.220 820.302 -217.129 821.195 Q -219.037 822.089 -220.014 822.683 Q -220.991 823.278 -221.477 823.591 Q -221.963 823.904 -222.054 823.979 Q -222.144 824.055 -222.201 824.021 Q -222.258 823.987 -225.089 825.674 Q -227.920 827.360 -229.755 829.342 Q -231.591 831.323 -232.464 832.610 Q -233.337 833.897 -234.450 835.728 Q -235.563 837.560 -236.133 838.469 Q -236.703 839.379 -236.955 839.820 Q -237.207 840.261 -237.317 840.636 Q -237.427 841.011 -237.398 840.570 Q -237.369 840.129 -237.635 841.222 Q -237.901 842.315 -238.007 842.987 Q -238.113 843.660 -237.950 845.344 Q -237.787 847.029 -237.657 847.968 Q -237.527 848.907 -237.361 849.471 Q -237.195 850.034 -237.088 850.439 Q -236.981 850.844 -236.979 850.834 Q -236.977 850.824 -236.971 850.849 Q -236.964 850.874 -236.966 850.858 Q -236.968 850.842 -237.009 850.705 Q -237.050 850.567 -237.023 850.665 Q -236.996 850.763 -236.872 851.178 Q -236.749 851.594 -236.618 852.017 Q -236.487 852.441 -236.428 852.481 Q -236.369 852.521 -236.183 853.013 Q -235.997 853.505 -236.294 853.045 Q -236.591 852.586 -234.989 854.693 Q -233.386 856.800 -232.549 858.068 Q -231.712 859.337 -231.462 860.131 Q -231.212 860.925 -231.108 861.356 Q -231.005 861.787 -231.004 861.724 Q -231.004 861.662 -231.006 861.683 Q -231.008 861.704 -230.796 862.657 Q -230.583 863.610 -230.671 863.210 Q -230.758 862.810 -230.710 863.435 Q -230.661 864.061 -230.385 864.891 Q -230.110 865.721 -230.116 865.671 Q -230.122 865.620 -230.079 865.695 Q -230.036 865.769 -229.998 865.814 Q -229.959 865.860 -229.930 866.118 Q -229.900 866.376 -229.888 866.454 Q -229.877 866.533 -229.684 867.320 Q -229.491 868.107 -229.460 868.113 Q -229.086 869.832 -228.782 869.119 Q -228.546 870.747 -227.921 870.118 Q -227.898 870.137 -227.753 870.674 Q -227.608 871.212 -227.595 871.179 Q -227.582 871.146 -227.554 871.259 Q -227.526 871.371 -227.468 871.712 Q -227.409 872.052 -227.399 872.113 Q -227.388 872.174 -227.272 872.059 Q -227.156 871.945 -227.136 872.088 Q -227.116 872.231 -227.062 872.176 Q -227.008 872.122 -226.990 872.290 Q -226.971 872.459 -226.945 872.808 Q -226.919 873.158 -226.877 873.112 Q -226.835 873.067 -226.823 873.339 Q -226.811 873.610 -226.809 873.735 Q -226.806 873.860 -226.782 873.816 Q -226.757 873.772 -226.898 875.447 Q -227.039 877.121 -227.181 878.011 Q -227.322 878.900 -227.345 879.109 Q -227.367 879.318 -227.397 879.398 Q -227.428 879.479 -227.443 879.548 Q -227.457 879.617 -227.474 879.676 Q -227.490 879.734 -227.824 881.088 Q -228.158 882.441 -228.262 882.792 Q -228.367 883.142 -228.454 883.532 Q -228.542 883.922 -228.567 884.029 Q -228.591 884.136 -228.596 884.157 Q -228.601 884.177 -228.619 884.281 Q -228.636 884.385 -228.731 884.627 Q -228.825 884.870 -228.805 884.983 Q -228.784 885.096 -228.774 884.752 Q -228.764 884.408 -228.895 886.111 Q -228.843 886.115 -228.805 886.151 Q -229.467 885.297 -229.365 886.135 Q -229.263 886.973 -229.333 887.609 Q -229.402 888.245 -229.531 888.053 Q -229.660 887.862 -229.681 887.904 Q -229.702 887.947 -229.689 887.976 Q -229.675 888.006 -229.720 887.977 Q -229.764 887.948 -229.763 887.946 Q -229.762 887.944 -229.779 887.932 Q -229.796 887.920 -229.805 887.916 Q -229.813 887.913 -229.826 887.907 Q -229.838 887.901 -229.849 887.895 Q -229.860 887.889 -229.870 887.880 Q -229.881 887.870 -229.892 887.861 Q -229.902 887.852 -229.872 887.909 Q -229.843 887.967 -229.708 888.363 Q -229.574 888.760 -229.367 889.173 Q -229.160 889.586 -229.169 889.651 Q -229.178 889.717 -229.256 889.681 Q -229.334 889.644 -229.247 889.813 Q -229.160 889.982 -228.914 890.382 Q -228.668 890.781 -228.701 890.769 Q -228.735 890.757 -228.760 890.736 Q -228.785 890.716 -228.634 890.878 Q -228.484 891.040 -228.018 891.473 Q -227.553 891.906 -227.705 891.871 Q -227.858 891.837 -227.753 891.888 Q -227.648 891.939 -227.430 891.966 Q -227.211 891.993 -227.130 891.991 Q -227.048 891.990 -227.157 891.983 Q -227.267 891.976 -226.752 891.973 Q -226.238 891.969 -226.224 892.018 Q -226.211 892.067 -225.861 892.104 Q -225.510 892.142 -225.636 892.116 Q -225.762 892.090 -225.618 892.085 Q -225.474 892.079 -225.638 891.982 Q -225.802 891.884 -225.698 892.047 Q -225.595 892.210 -223.268 891.755 Q -220.941 891.300 -219.374 892.195 Q -217.806 893.090 -217.239 893.211 Q -216.672 893.332 -215.994 893.348 Q -215.315 893.363 -215.329 893.349 Q -215.342 893.336 -215.301 893.324 Q -215.261 893.312 -215.311 893.345 Q -215.362 893.377 -214.675 893.070 Q -213.989 892.763 -214.254 892.858 Q -214.520 892.953 -214.487 892.962 Q -214.455 892.972 -213.910 892.339 Q -213.366 891.706 -213.938 891.965 Q -214.510 892.224 -214.178 891.884 Q -213.846 891.544 -213.221 890.747 Q -212.595 889.950 -212.295 889.214 Q -211.995 888.478 -211.948 888.348 Q -211.901 888.218 -211.887 887.710 Q -211.873 887.202 -211.890 887.243 Q -211.907 887.284 -211.904 887.232 Q -211.902 887.181 -211.976 887.337 Q -212.051 887.493 -211.822 886.692 Q -211.593 885.890 -211.443 885.502 Q -211.292 885.114 -211.222 884.980 Q -211.152 884.846 -211.156 884.878 Q -211.159 884.910 -211.126 884.784 Q -211.093 884.658 -210.824 883.891 Q -210.554 883.123 -210.498 882.904 Q -210.442 882.685 -210.370 882.383 Q -210.298 882.080 -210.308 882.085 Q -210.319 882.089 -210.208 881.975 Q -210.098 881.861 -209.810 880.644 Q -209.522 879.427 -209.213 878.363 Q -208.904 877.299 -208.825 877.504 Q -208.747 877.709 -208.582 877.390 Q -208.418 877.071 -208.394 876.905 Q -208.369 876.740 -208.159 876.353 Q -207.949 875.967 -207.684 875.499 Q -207.419 875.032 -207.345 875.042 Q -207.272 875.052 -207.140 874.827 Q -207.009 874.601 -206.994 874.993 Q -206.979 875.385 -205.397 873.146 Q -203.815 870.907 -203.157 869.476 Q -202.499 868.045 -202.342 867.768 Q -202.185 867.491 -202.235 867.618 Q -202.285 867.745 -202.186 867.546 Q -202.087 867.347 -202.176 867.566 Q -202.266 867.785 -201.970 867.191 Q -201.674 866.598 -201.300 866.033 Q -200.926 865.469 -200.495 865.069 Q -200.064 864.669 -199.778 864.134 Q -199.491 863.599 -199.519 863.660 Q -199.546 863.721 -199.585 863.747 Q -199.623 863.772 -199.423 863.569 Q -199.223 863.366 -199.396 863.623 Q -199.568 863.880 -198.430 862.497 Q -197.291 861.114 -196.477 860.222 Q -195.663 859.329 -195.525 859.158 Q -195.387 858.988 -195.234 858.772 Q -195.081 858.557 -194.774 858.116 Q -194.466 857.676 -194.647 857.993 Q -194.829 858.310 -194.522 857.871 Q -194.214 857.432 -193.860 856.732 Q -193.505 856.033 -193.551 856.095 Q -193.597 856.157 -193.579 856.132 Q -193.560 856.107 -193.562 856.076 Q -193.564 856.045 -192.844 854.778 Q -192.123 853.512 -191.651 852.637 Q -191.180 851.763 -191.014 851.379 Q -190.848 850.995 -190.797 850.863 Q -190.746 850.732 -190.807 850.846 Q -190.868 850.961 -190.749 850.615 Q -190.630 850.270 -189.973 848.708 Q -189.317 847.146 -188.928 845.972 Q -188.539 844.798 -188.512 844.120 Q -188.484 843.443 -188.514 843.319 Q -188.543 843.195 -188.504 843.263 Q -188.465 843.331 -188.481 843.071 Q -188.496 842.810 -188.533 842.337 Q -188.570 841.864 -188.543 841.851 Q -188.283 842.547 -188.668 841.199 Q -189.053 839.850 -189.353 838.916 Q -189.653 837.982 -190.134 836.754 Q -190.614 835.527 -190.492 835.821 Q -190.370 836.116 -190.390 836.050 Q -190.410 835.984 -190.859 835.083 Q -191.308 834.182 -191.161 834.477 Q -191.014 834.771 -191.104 834.608 Q -191.195 834.444 -191.762 833.640 Q -192.330 832.835 -192.071 833.181 Q -191.813 833.527 -192.365 833.053 Q -192.917 832.580 -193.381 832.054 Q -193.844 831.527 -193.929 831.450 Q -194.013 831.374 -194.051 831.337 Q -194.088 831.301 -193.982 831.385 Q -193.876 831.469 -195.032 830.764 Q -196.187 830.058 -196.837 829.538 Q -197.487 829.017 -197.654 828.888 Q -197.822 828.760 -197.737 828.809 Q -197.651 828.858 -197.899 828.727 Q -198.147 828.596 -198.415 827.853 Q -198.682 827.109 -198.707 826.337 Q -198.732 825.565 -198.630 824.812 "></path>
    <path id="STROKE_bb0c7d3c-e036-4440-8eb5-398077213c0d" opacity="1.000" fill="none" stroke="#000000" stroke-width="1.000" stroke-opacity="1.000" stroke-linecap="round" stroke-linejoin="round" d="M -217.782 873.693 Q -217.565 873.536 -216.690 868.953 Q -215.814 864.370 -215.166 861.353 Q -214.518 858.337 -214.270 856.896 Q -214.023 855.455 -213.887 854.707 Q -213.751 853.960 -213.696 853.641 Q -213.642 853.323 -213.666 853.467 Q -213.691 853.611 -213.538 852.818 Q -213.385 852.023 -213.132 849.871 Q -212.878 847.718 -212.571 845.921 Q -212.264 844.124 -212.180 843.500 Q -212.096 842.876 -211.954 842.248 Q -211.812 841.620 -211.999 840.178 Q -212.033 840.165 -212.134 840.126 Q -212.109 840.058 -212.083 839.990 Q -211.724 839.073 -212.570 841.264 Q -213.415 843.455 -213.788 844.450 Q -214.161 845.444 -214.368 846.127 Q -214.575 846.810 -214.922 847.258 Q -215.270 847.707 -215.861 848.366 Q -216.452 849.025 -216.295 848.826 Q -216.139 848.626 -216.634 849.053 Q -217.130 849.480 -218.205 849.754 Q -219.281 850.027 -219.558 849.979 Q -219.836 849.931 -221.046 849.844 Q -222.256 849.757 -222.561 849.634 Q -222.866 849.511 -223.482 849.572 Q -224.098 849.633 -224.078 849.582 Q -224.145 849.557 -224.384 849.466 Q -224.396 849.500 -224.435 849.602 Q -224.367 849.628 -224.312 849.688 L -224.324 849.722 Q -224.257 849.748 -224.189 849.773 Q -224.202 849.807 -224.214 849.841 Q -224.607 849.692 -223.535 850.099 Q -223.548 850.133 -223.561 850.167 Q -223.535 850.099 -223.308 848.476 Q -223.321 848.510 -223.372 848.645 Q -222.475 849.253 -222.668 849.146 Q -222.903 848.958 -222.403 849.331 Q -221.903 849.704 -220.016 851.715 Q -218.128 853.725 -214.686 857.498 Q -214.276 856.417 -214.390 856.717 Q -213.804 855.175 -213.951 855.562 Q -213.506 854.388 -213.565 854.543 Q -212.447 852.851 -212.955 853.417 Q -213.462 853.982 -211.821 852.239 Q -210.179 850.496 -208.621 848.931 Q -207.062 847.367 -205.966 846.360 Q -204.869 845.353 -204.472 845.002 Q -204.074 844.651 -203.519 844.252 Q -202.965 843.854 -202.314 843.458 Q -201.663 843.062 -201.760 843.123 Q -201.856 843.183 -201.762 843.135 Q -201.668 843.087 -201.817 843.130 Q -201.965 843.174 -201.769 843.121 Q -201.573 843.069 -201.621 843.071 Q -201.668 843.073 -201.576 843.040 Q -201.484 843.006 -200.775 842.869 Q -200.067 842.732 -200.078 842.758 Q -199.984 842.716 -199.525 842.735 Q -199.999 843.809 -199.918 843.630 Q -199.837 843.450 -200.126 843.819 Q -200.415 844.188 -200.718 844.520 Q -201.021 844.853 -201.673 845.371 Q -202.325 845.889 -202.001 845.642 Q -201.677 845.395 -202.118 845.860 Q -202.559 846.325 -203.657 847.420 Q -204.755 848.514 -206.619 849.372 Q -208.483 850.229 -211.114 850.850 Q -211.099 850.806 -211.112 850.795 Q -211.125 850.785 -211.132 850.757 Q -211.139 850.730 -211.148 850.702 Q -211.156 850.675 -211.181 850.712 Q -211.207 850.748 -211.251 850.545 Q -211.295 850.341 -211.221 850.130 Q -211.146 849.919 -210.871 849.698 "></path>
    <path id="STROKE_1a110f7f-163d-4349-9381-05f16e7266bc" opacity="1.000" fill="none" stroke="#000000" stroke-width="1.000" stroke-opacity="1.000" stroke-linecap="round" stroke-linejoin="round" d="M -226.510 875.549 Q -226.523 875.582 -226.575 875.718 Q -225.115 876.862 -225.570 876.449 Q -224.197 877.099 -224.577 876.904 Q -223.262 877.403 -223.489 877.317 Q -222.280 877.776 -222.368 877.742 Q -221.082 877.734 -220.292 877.604 Q -219.502 877.474 -218.693 877.521 Q -217.884 877.568 -215.191 877.668 Q -215.836 878.103 -217.117 878.826 Q -218.399 879.549 -220.317 880.560 Q -222.236 881.570 -224.791 882.869 Q -227.346 884.168 -230.538 885.754 Q -230.021 885.865 -229.336 885.864 Q -228.652 885.862 -228.329 885.970 Q -228.006 886.078 -228.211 886.039 Q -228.416 886.000 -228.354 886.032 Q -228.293 886.063 -228.292 886.058 Q -228.290 886.053 -228.273 886.043 Q -228.255 886.034 -227.371 886.166 Q -226.488 886.297 -225.864 886.357 Q -225.241 886.417 -225.393 886.364 Q -225.546 886.310 -225.229 886.445 Q -224.911 886.580 -222.208 887.120 Q -219.504 887.660 -214.314 888.621 Q -214.159 888.721 -214.259 888.747 Q -214.359 888.773 -214.304 888.765 Q -214.248 888.756 -214.699 889.034 Q -215.151 889.312 -215.831 889.488 Q -216.511 889.664 -216.971 889.739 Q -217.431 889.813 -217.403 889.823 Q -217.375 889.833 -217.344 889.760 Q -217.313 889.688 -218.975 889.681 Q -220.636 889.674 -221.596 888.529 Q -222.556 887.383 -222.164 883.975 Q -222.000 883.859 -220.583 883.430 Q -219.166 883.001 -216.875 882.611 Q -214.584 882.221 -214.284 883.491 Q -213.983 884.760 -214.460 887.082 Q -214.936 889.405 -215.080 890.401 Q -215.224 891.397 -215.217 891.428 Q -215.211 891.458 -215.223 891.515 Q -215.235 891.572 -215.405 891.576 Q -215.575 891.580 -215.571 891.611 Q -215.567 891.642 -215.552 891.744 Q -215.536 891.846 -215.482 892.023 Q -215.427 892.200 -215.386 892.210 Q -215.344 892.219 -215.570 892.224 Q -215.795 892.229 -215.777 892.247 Q -215.758 892.265 -215.371 892.180 Q -214.983 892.095 -215.017 891.950 Q -215.051 891.805 -215.062 890.792 "></path>
    <path id="STROKE_bd3e7d88-a33b-48bd-9465-cc3419359d0c" opacity="1.000" fill="none" stroke="#000000" stroke-width="1.000" stroke-opacity="1.000" stroke-linecap="round" stroke-linejoin="round" d="M -225.651 893.157 Q -225.256 893.298 -226.830 892.748 Q -227.044 892.894 -227.751 893.599 Q -228.457 894.303 -228.280 894.169 Q -228.103 894.035 -228.182 894.126 Q -228.261 894.217 -228.439 894.726 Q -228.618 895.235 -228.582 895.226 Q -228.547 895.217 -228.523 895.075 Q -228.498 894.932 -228.760 895.544 Q -229.022 896.155 -228.555 897.171 Q -228.088 898.186 -227.505 898.582 Q -226.922 898.977 -226.771 899.026 Q -226.620 899.075 -226.778 899.015 Q -226.936 898.955 -226.413 899.151 Q -225.890 899.347 -225.781 899.396 Q -225.673 899.446 -225.362 899.543 Q -225.052 899.639 -224.582 899.767 Q -224.112 899.895 -223.614 899.984 Q -223.116 900.073 -222.954 900.102 Q -222.793 900.132 -222.426 900.232 Q -222.060 900.333 -222.146 900.325 Q -222.233 900.317 -221.799 900.366 Q -221.365 900.415 -221.158 900.422 Q -220.951 900.430 -220.992 900.434 Q -221.033 900.439 -221.107 900.386 Q -221.181 900.333 -220.758 900.394 Q -220.334 900.455 -219.287 900.307 Q -218.240 900.159 -217.580 899.850 Q -216.919 899.541 -216.570 898.925 Q -216.222 898.308 -216.271 898.344 Q -216.320 898.380 -216.264 898.266 Q -216.208 898.153 -216.073 897.787 Q -215.938 897.421 -215.704 896.768 Q -215.471 896.114 -215.515 896.147 Q -215.559 896.180 -215.519 896.226 Q -215.479 896.272 -215.771 895.163 Q -216.062 894.055 -215.905 894.646 Q -215.748 895.238 -216.106 894.138 Q -216.465 893.037 -216.587 892.096 Q -216.600 892.130 -216.638 892.232 Q -216.677 892.165 -216.201 891.931 "></path>
    <path id="STROKE_16b0dab7-bdd5-4b22-bd4c-0d2235ab8d18" opacity="1.000" fill="none" stroke="#000000" stroke-width="1.000" stroke-opacity="1.000" stroke-linecap="round" stroke-linejoin="round" d="M -232.825 859.629 Q -232.689 859.270 -233.057 860.241 Q -231.559 861.647 -232.095 861.189 Q -231.586 861.836 -231.639 861.828 Q -231.287 862.724 -231.260 862.672 Q -230.511 863.646 -230.735 863.337 Q -230.306 864.128 -230.237 864.295 Q -230.169 864.462 -230.177 864.326 Q -229.986 864.752 -230.078 864.546 Q -230.170 864.339 -230.074 864.557 Q -229.978 864.774 -230.060 864.572 Q -230.142 864.370 -229.929 864.884 Q -229.717 865.399 -229.528 865.813 Q -229.340 866.227 -229.332 866.247 Q -229.323 866.267 -229.372 866.226 Q -229.421 866.186 -229.053 866.930 Q -228.684 867.674 -228.303 868.529 Q -227.921 869.384 -227.926 869.306 Q -227.930 869.228 -227.900 869.274 Q -227.871 869.319 -227.795 869.370 Q -227.719 869.420 -227.798 869.434 Q -227.877 869.447 -227.429 869.535 Q -226.981 869.623 -226.423 870.083 Q -225.866 870.543 -225.379 870.914 Q -224.891 871.286 -224.925 871.293 Q -224.960 871.300 -224.945 871.311 Q -224.931 871.323 -225.006 871.259 Q -225.080 871.196 -225.045 871.229 Q -225.010 871.263 -224.952 871.354 Q -224.894 871.446 -224.594 871.728 Q -224.294 872.009 -224.260 872.010 Q -224.225 872.010 -224.301 871.975 Q -224.376 871.939 -224.158 872.106 Q -223.940 872.272 -224.154 872.104 Q -224.368 871.935 -223.734 872.491 Q -223.099 873.048 -222.644 873.292 Q -222.189 873.537 -222.118 873.556 Q -222.047 873.575 -222.151 873.551 Q -222.256 873.528 -221.828 873.686 Q -221.401 873.844 -221.267 873.877 Q -221.132 873.910 -221.199 873.896 Q -221.265 873.882 -221.268 873.892 Q -221.271 873.902 -221.270 873.886 Q -221.269 873.870 -221.257 873.880 Q -221.244 873.890 -221.237 873.880 Q -221.231 873.871 -221.178 873.883 Q -221.124 873.896 -221.164 873.879 Q -221.203 873.863 -221.011 873.914 Q -220.819 873.964 -220.647 873.990 Q -220.474 874.015 -219.968 874.146 Q -219.461 874.277 -218.944 874.460 Q -218.426 874.643 -218.553 874.592 Q -218.680 874.542 -218.664 874.568 Q -218.648 874.595 -218.334 874.635 Q -218.020 874.675 -217.136 874.899 Q -216.252 875.122 -216.321 875.117 Q -216.391 875.112 -216.225 875.134 Q -216.059 875.156 -215.779 875.059 Q -215.499 874.963 -215.476 874.946 Q -215.453 874.930 -215.408 874.944 Q -215.362 874.958 -215.485 874.972 Q -215.608 874.987 -215.553 874.970 Q -215.497 874.953 -214.452 874.671 Q -213.406 874.388 -213.536 874.332 Q -212.721 874.348 -212.796 874.225 Q -212.609 874.093 -212.103 873.992 Q -211.597 873.891 -211.600 873.901 Q -211.603 873.911 -211.272 873.776 Q -210.941 873.640 -211.244 873.768 Q -211.547 873.896 -210.995 873.551 Q -210.444 873.206 -209.359 872.929 Q -208.273 872.651 -206.362 870.993 Q -206.295 871.018 -206.227 871.044 Q -206.480 871.308 -206.274 871.064 Q -206.069 870.821 -205.205 869.773 Q -204.341 868.725 -204.145 868.398 Q -203.950 868.070 -203.658 867.626 Q -203.367 867.182 -203.423 867.269 Q -203.480 867.357 -203.517 867.391 Q -203.555 867.425 -203.481 867.361 Q -203.408 867.296 -203.371 867.274 Q -203.334 867.251 -203.379 867.289 Q -203.424 867.327 -202.980 866.980 Q -202.537 866.633 -202.353 866.538 Q -202.169 866.443 -202.172 866.413 Q -202.175 866.384 -201.909 866.083 Q -201.644 865.782 -201.505 865.618 Q -201.366 865.453 -201.203 865.179 "></path>
  </g>
</svg>