<?xml version="1.0" encoding="UTF-8" standalone="yes"?>
<svg xmlns="http://www.w3.org/2000/svg" xmlns:xlink="http://www.w3.org/1999/xlink" width="139.973px" height="156.648px" version="1.1" viewBox="-389.212 636.526 93.315 104.432">
  <!--
	Exported with Concepts: Smarter Sketching
	Version: 2023.03.3 on Android 16
	https://concepts.app/
	-->
  <title>未命名 2</title>
  <desc>Drawing exported from Concepts: Smarter Sketching</desc>
  <defs></defs>
  <g id="钢笔" opacity="1.000">
    <path id="STROKE_54078dcf-5566-4e0a-8447-0e77198915a0" opacity="1.000" fill="none" stroke="#000000" stroke-width="1.000" stroke-opacity="1.000" stroke-linecap="round" stroke-linejoin="round" d="M -369.553 686.688 Q -369.921 687.201 -369.834 687.104 Q -369.748 687.007 -369.893 687.177 Q -370.038 687.346 -370.489 687.292 Q -370.940 687.239 -371.167 687.380 Q -371.394 687.521 -373.370 686.453 Q -375.347 685.384 -376.268 684.230 Q -377.189 683.076 -378.603 681.623 Q -380.017 680.170 -382.261 676.772 Q -384.505 673.374 -385.283 671.397 Q -386.060 669.420 -386.523 668.344 Q -386.987 667.268 -387.070 665.980 Q -387.153 664.693 -386.223 663.430 Q -385.293 662.167 -384.159 661.035 Q -383.024 659.903 -381.735 658.803 Q -380.445 657.703 -379.716 657.263 Q -378.987 656.824 -378.015 655.934 Q -377.043 655.044 -375.145 654.008 Q -373.247 652.972 -372.147 652.882 Q -371.047 652.793 -370.556 652.945 Q -370.064 653.096 -369.391 653.278 Q -368.719 653.459 -368.754 653.466 Q -368.790 653.472 -368.814 653.469 Q -368.839 653.466 -368.567 653.536 Q -368.296 653.605 -367.665 653.812 Q -367.034 654.018 -366.389 654.737 Q -365.743 655.456 -365.440 656.055 Q -365.136 656.655 -365.115 657.156 Q -365.094 657.657 -365.090 658.168 Q -365.086 658.679 -365.119 658.728 Q -365.152 658.778 -364.996 658.492 Q -364.840 658.206 -365.780 660.336 Q -365.812 660.336 -365.906 660.336 Q -366.118 659.326 -366.032 659.644 Q -366.032 658.665 -366.032 658.606 Q -366.032 658.547 -366.032 658.607 Q -366.032 657.030 -366.032 657.291 Q -366.032 657.551 -366.032 657.418 Q -366.032 657.284 -366.032 656.912 Q -366.032 656.539 -366.013 656.460 Q -365.994 656.380 -366.052 656.216 Q -366.110 656.051 -365.969 654.289 Q -365.828 652.526 -365.542 650.698 Q -365.256 648.869 -365.072 648.157 Q -364.887 647.444 -364.748 647.153 Q -364.609 646.862 -364.680 646.649 Q -364.750 646.435 -364.058 645.140 Q -363.367 643.845 -362.730 643.235 Q -362.093 642.624 -361.834 642.480 Q -361.576 642.335 -361.148 642.095 Q -360.721 641.856 -360.983 642.043 Q -361.245 642.230 -359.833 641.331 Q -358.420 640.432 -356.985 639.702 Q -355.549 638.972 -354.117 638.810 Q -352.685 638.648 -351.824 638.678 Q -350.964 638.708 -350.832 638.766 Q -350.699 638.823 -350.747 638.852 Q -350.795 638.880 -349.867 639.160 Q -348.939 639.439 -347.754 640.524 Q -346.569 641.610 -346.201 642.222 Q -345.834 642.834 -345.881 642.766 Q -345.928 642.699 -345.785 642.918 Q -345.642 643.137 -345.527 643.934 Q -345.411 644.731 -345.558 645.236 Q -345.704 645.742 -345.956 646.232 Q -346.208 646.723 -346.142 646.625 Q -346.076 646.526 -346.090 646.566 Q -346.104 646.606 -346.256 646.766 Q -346.407 646.926 -346.818 647.067 Q -346.865 646.624 -346.850 646.626 Q -346.877 645.638 -346.787 645.746 Q -346.159 645.016 -346.347 645.243 Q -346.024 645.029 -345.598 644.779 Q -345.173 644.528 -344.447 644.133 Q -343.720 643.738 -343.611 643.711 Q -343.502 643.683 -343.273 643.587 Q -343.044 643.492 -342.963 643.461 Q -342.882 643.430 -342.890 643.448 Q -342.897 643.466 -342.603 643.417 Q -342.309 643.369 -340.616 642.416 Q -338.922 641.463 -336.219 640.776 Q -333.515 640.089 -332.049 640.188 Q -330.583 640.288 -329.926 640.370 Q -329.270 640.453 -329.147 640.535 Q -329.024 640.618 -328.939 640.664 Q -328.855 640.710 -328.906 640.707 Q -328.956 640.703 -328.683 640.785 Q -328.409 640.867 -327.813 641.383 Q -327.217 641.898 -326.900 643.033 Q -326.584 644.168 -326.541 645.099 Q -326.497 646.031 -326.535 646.578 Q -326.573 647.126 -326.647 647.473 Q -326.722 647.821 -326.762 647.765 Q -326.803 647.709 -326.653 647.997 Q -326.504 648.284 -330.624 653.167 Q -329.505 653.420 -329.806 653.356 Q -328.429 653.356 -328.895 653.356 Q -327.669 653.456 -327.951 653.418 Q -326.817 653.582 -327.133 653.544 Q -327.769 653.532 -326.459 653.562 Q -325.149 653.591 -323.018 653.903 Q -320.888 654.215 -318.657 654.509 Q -316.426 654.803 -314.968 655.127 Q -313.510 655.450 -312.153 656.200 Q -310.797 656.949 -310.071 657.646 Q -309.345 658.344 -309.197 658.573 Q -309.050 658.803 -308.910 659.010 Q -308.770 659.216 -308.620 659.530 Q -308.470 659.844 -308.248 659.735 Q -308.025 659.627 -308.102 661.235 Q -308.178 662.844 -308.137 663.646 Q -308.096 664.449 -308.586 665.426 Q -309.076 666.404 -309.457 667.089 Q -309.837 667.773 -310.076 668.096 Q -310.315 668.419 -310.348 668.536 Q -310.380 668.653 -310.736 669.128 Q -311.092 669.604 -311.466 669.971 Q -311.840 670.338 -311.964 670.405 Q -312.087 670.473 -312.135 670.496 Q -312.183 670.519 -312.064 670.458 Q -311.945 670.396 -313.078 671.028 Q -313.161 671.075 -312.912 671.081 Q -312.662 671.087 -310.634 671.442 Q -308.606 671.797 -306.408 672.635 Q -304.211 673.472 -303.188 674.131 Q -302.165 674.790 -301.596 675.272 Q -301.028 675.754 -300.643 676.161 Q -300.258 676.569 -300.226 676.628 Q -300.195 676.687 -300.128 676.832 Q -300.061 676.977 -300.094 676.898 Q -300.127 676.818 -299.480 677.666 Q -298.833 678.514 -298.434 679.661 Q -298.036 680.807 -298.048 682.992 Q -298.061 685.178 -298.206 686.480 Q -298.352 687.782 -298.327 688.062 Q -298.303 688.342 -299.388 689.444 Q -300.474 690.547 -301.519 691.376 Q -302.564 692.206 -303.238 692.622 Q -303.912 693.038 -304.522 693.185 Q -305.131 693.332 -305.194 693.357 Q -305.257 693.381 -305.254 693.313 Q -305.250 693.245 -305.404 693.607 Q -305.558 693.969 -310.908 693.228 Q -311.061 692.404 -311.002 692.662 Q -311.002 691.059 -311.002 691.656 Q -310.939 691.656 -310.876 691.656 Q -310.876 691.593 -310.876 691.530 Q -310.814 691.530 -310.373 691.530 Q -310.533 690.839 -310.296 693.089 Q -310.058 695.340 -310.506 696.913 Q -310.953 698.487 -311.442 699.117 Q -311.932 699.748 -312.289 700.230 Q -312.645 700.712 -312.761 700.846 Q -312.877 700.980 -313.097 701.160 Q -313.317 701.340 -313.557 701.516 Q -313.796 701.693 -313.825 701.717 Q -313.854 701.742 -313.904 701.777 Q -313.953 701.812 -314.447 702.200 Q -314.941 702.589 -315.096 702.669 Q -315.252 702.748 -315.392 702.838 Q -315.532 702.927 -315.640 702.949 Q -315.747 702.971 -316.934 703.797 Q -318.122 704.623 -320.464 705.729 Q -322.806 706.834 -324.232 707.282 Q -325.657 707.731 -326.234 707.967 Q -326.812 708.203 -327.811 708.282 Q -328.811 708.361 -329.296 708.342 Q -329.782 708.323 -330.466 708.148 Q -331.150 707.974 -331.579 707.665 Q -332.008 707.357 -332.453 707.021 Q -332.899 706.685 -334.354 704.966 Q -335.809 703.247 -336.648 701.930 Q -337.487 700.613 -337.647 699.924 Q -337.806 699.235 -337.773 699.639 Q -337.740 700.044 -337.794 697.945 Q -337.731 697.945 -337.668 697.945 Q -337.596 697.775 -337.542 697.568 Q -337.542 697.599 -337.542 697.757 Q -337.479 697.757 -337.416 697.757 Q -337.416 697.788 -337.416 697.819 Q -337.232 698.887 -337.290 698.763 Q -337.290 700.264 -337.290 699.769 Q -337.290 700.946 -337.290 700.807 Q -337.290 702.045 -337.290 701.719 Q -337.603 703.191 -337.510 702.693 Q -337.366 702.367 -337.981 703.772 Q -338.596 705.176 -339.404 706.523 Q -340.211 707.869 -340.487 708.373 Q -340.764 708.878 -341.323 709.417 Q -341.882 709.957 -342.348 710.289 Q -342.814 710.621 -342.866 710.664 Q -342.919 710.708 -342.993 710.699 Q -343.068 710.690 -342.860 710.639 Q -342.651 710.587 -343.832 711.214 Q -345.012 711.840 -347.421 711.853 Q -349.829 711.866 -351.433 711.624 Q -353.037 711.381 -352.985 711.477 Q -352.933 711.572 -353.753 711.199 Q -354.574 710.826 -355.299 710.226 Q -356.024 709.626 -356.081 709.585 Q -356.138 709.544 -356.078 709.585 Q -356.018 709.625 -356.453 709.311 Q -356.888 708.996 -357.253 708.637 Q -357.619 708.279 -357.836 708.064 Q -358.053 707.849 -358.096 707.786 Q -358.139 707.723 -358.529 707.217 Q -358.919 706.711 -358.958 706.654 Q -358.998 706.598 -359.051 706.475 Q -359.103 706.353 -359.239 706.214 Q -359.375 706.075 -359.638 705.625 Q -359.902 705.175 -360.227 704.194 Q -360.551 703.213 -360.705 702.293 Q -360.860 701.373 -360.826 701.503 Q -360.793 701.632 -360.799 701.614 Q -360.804 701.595 -360.766 701.303 Q -360.728 701.011 -360.243 700.320 Q -359.757 699.630 -359.805 699.832 Q -359.142 698.957 -359.365 699.266 Q -359.302 699.203 -359.302 699.014 Q -359.239 699.014 -359.177 699.014 Q -359.177 698.952 -359.177 698.889 Q -359.114 698.889 -359.051 698.889 Q -359.051 698.826 -359.051 698.762 Q -358.988 698.762 -358.800 698.794 L -358.800 698.826 Q -358.736 698.857 -358.548 698.951 Q -358.548 700.081 -358.548 699.675 Q -358.548 701.250 -358.548 700.681 Q -358.436 700.856 -359.488 702.025 Q -360.540 703.194 -361.778 703.796 Q -363.015 704.398 -363.579 704.547 Q -364.142 704.697 -364.571 704.796 Q -365.000 704.896 -364.725 704.899 Q -364.450 704.903 -365.396 704.984 Q -366.341 705.065 -367.366 704.954 Q -368.390 704.843 -369.842 703.468 Q -371.295 702.094 -372.379 700.212 Q -373.463 698.330 -373.684 697.928 Q -373.905 697.526 -374.476 696.175 Q -375.047 694.823 -375.039 694.864 Q -375.030 694.905 -375.333 693.056 Q -375.635 691.206 -375.237 689.539 Q -374.838 687.871 -374.257 686.998 Q -373.676 686.125 -373.460 685.800 Q -373.244 685.475 -373.343 685.557 Q -373.442 685.638 -372.740 685.002 Q -372.037 684.366 -371.487 684.324 Q -370.936 684.281 -370.514 684.562 Q -370.091 684.843 -370.160 684.764 Q -370.229 684.685 -370.156 684.805 Q -370.083 684.925 -370.135 684.752 Q -370.188 684.580 -369.365 686.625 "></path>
    <path id="STROKE_5235f045-c671-42f7-9d32-dbf458e74dc4" opacity="1.000" fill="none" stroke="#000000" stroke-width="1.000" stroke-opacity="1.000" stroke-linecap="round" stroke-linejoin="round" d="M -370.434 713.982 Q -370.294 713.917 -370.442 713.159 Q -370.589 712.402 -370.815 712.067 Q -371.040 711.731 -370.983 711.832 Q -370.926 711.933 -371.258 711.546 Q -371.591 711.158 -372.201 710.912 Q -372.811 710.665 -373.143 710.693 Q -373.475 710.721 -373.756 710.717 Q -374.037 710.712 -373.945 710.707 Q -373.853 710.702 -373.949 710.717 Q -374.045 710.731 -373.998 710.722 Q -373.950 710.712 -373.982 710.720 Q -374.015 710.728 -373.903 710.642 Q -373.791 710.555 -374.240 710.725 Q -374.689 710.894 -375.096 711.116 Q -375.503 711.337 -375.582 711.586 Q -375.661 711.835 -375.684 711.873 Q -375.706 711.912 -375.755 711.892 Q -375.803 711.873 -376.378 712.983 Q -376.954 714.094 -377.062 715.071 Q -377.169 716.048 -377.256 716.852 Q -377.343 717.657 -377.343 718.079 Q -377.344 718.501 -377.280 718.628 Q -377.217 718.756 -376.913 719.242 Q -376.609 719.729 -376.445 719.942 Q -376.281 720.156 -376.125 720.307 Q -375.969 720.458 -375.939 720.419 Q -375.910 720.381 -376.032 720.398 Q -376.155 720.415 -375.120 721.071 Q -374.085 721.727 -372.841 721.573 Q -371.598 721.419 -371.084 721.101 Q -370.570 720.783 -370.274 720.544 Q -369.977 720.304 -370.129 720.498 Q -370.281 720.692 -369.623 720.040 Q -368.965 719.388 -368.351 718.644 Q -367.736 717.900 -367.475 716.740 Q -367.213 715.579 -367.574 714.547 Q -367.935 713.516 -367.944 713.521 Q -367.953 713.527 -367.903 713.595 Q -367.854 713.662 -368.154 713.203 Q -368.455 712.743 -368.785 712.456 Q -369.114 712.170 -369.566 711.921 Q -370.018 711.672 -369.961 711.691 Q -369.903 711.711 -370.062 711.657 Q -370.221 711.603 -370.112 711.618 Q -370.003 711.633 -370.553 711.337 Q -371.102 711.041 -371.551 711.030 Q -372.000 711.020 -372.045 711.024 Q -372.090 711.029 -372.594 711.028 Q -373.097 711.026 -373.073 711.026 Q -373.048 711.027 -373.044 711.027 Q -373.107 711.058 -373.264 711.215 "></path>
    <path id="STROKE_86fdf63d-4064-4813-b198-ca391950389b" opacity="1.000" fill="none" stroke="#000000" stroke-width="1.000" stroke-opacity="1.000" stroke-linecap="round" stroke-linejoin="round" d="M -377.289 726.121 Q -377.321 726.121 -377.887 726.152 Q -377.918 726.215 -377.918 726.309 Q -378.340 726.582 -378.264 726.592 Q -378.401 728.086 -378.374 727.843 Q -378.347 727.599 -378.355 727.739 Q -378.364 727.880 -378.367 727.933 Q -378.370 727.987 -378.357 728.541 Q -378.345 729.096 -378.306 729.523 Q -378.267 729.950 -378.184 729.941 Q -378.101 729.933 -378.146 730.168 Q -378.192 730.403 -377.631 731.383 Q -377.071 732.363 -377.025 732.452 Q -376.979 732.541 -376.929 732.566 Q -376.878 732.592 -375.730 733.007 Q -374.582 733.421 -373.885 733.112 Q -373.188 732.802 -373.050 732.680 Q -372.911 732.557 -372.916 732.461 Q -372.921 732.364 -372.841 732.602 Q -372.760 732.840 -372.277 731.651 Q -371.795 730.461 -371.810 729.695 Q -371.825 728.929 -371.851 728.915 Q -371.878 728.901 -371.836 728.651 Q -371.795 728.402 -371.871 727.630 Q -371.947 726.859 -372.059 726.812 Q -372.172 726.765 -372.111 726.665 Q -372.051 726.564 -372.192 726.504 Q -372.332 726.445 -373.033 726.144 Q -373.734 725.842 -373.946 725.813 Q -374.157 725.784 -374.225 725.873 Q -374.292 725.963 -374.318 725.793 Q -374.344 725.623 -375.253 726.102 Q -376.163 726.581 -376.610 726.948 Q -377.058 727.314 -377.266 727.505 Q -377.473 727.695 -377.653 727.826 Q -377.832 727.956 -377.918 728.447 "></path>
    <path id="STROKE_4558a431-c757-41bc-bd02-931eb9c2a32b" opacity="1.000" fill="none" stroke="#000000" stroke-width="1.000" stroke-opacity="1.000" stroke-linecap="round" stroke-linejoin="round" d="M -369.239 735.554 Q -370.453 736.462 -370.025 736.120 Q -370.057 736.120 -370.182 736.151 Q -370.377 736.927 -370.308 736.749 Q -370.308 738.300 -370.308 737.755 Q -370.308 739.086 -370.308 738.667 Q -370.308 738.699 -370.308 738.762 Q -369.719 738.792 -369.937 738.793 Q -370.154 738.794 -369.994 738.806 Q -369.833 738.819 -368.610 738.761 Q -368.279 738.160 -368.296 738.258 Q -368.085 737.832 -367.882 737.116 Q -367.679 736.399 -367.698 734.925 Q -368.776 735.655 -368.421 735.460 Q -368.453 735.523 -368.610 735.805 Q -368.642 735.805 -368.799 736.057 "></path>
    <path id="STROKE_a6195b69-bfa7-431d-86c4-f03d7cf5721f" opacity="1.000" fill="none" stroke="#000000" stroke-width="1.000" stroke-opacity="1.000" stroke-linecap="round" stroke-linejoin="round" d="M -360.749 666.563 Q -360.734 666.935 -360.748 666.726 Q -360.762 666.518 -360.695 667.511 Q -360.628 668.505 -360.633 668.593 Q -360.639 668.682 -360.641 668.822 Q -360.643 668.962 -360.576 668.536 Q -360.509 668.110 -360.497 679.141 Q -360.497 679.078 -360.497 678.889 Q -359.658 678.673 -359.900 678.700 Q -358.520 678.390 -358.925 678.512 Q -357.825 678.529 -358.045 678.449 Q -356.419 677.952 -356.663 678.025 Q -356.907 678.097 -356.793 678.062 Q -356.680 678.026 -356.553 677.984 Q -356.427 677.941 -356.184 677.860 Q -355.942 677.780 -355.801 677.693 Q -355.659 677.607 -355.704 677.641 Q -355.748 677.675 -354.592 677.383 Q -353.435 677.090 -352.512 676.533 Q -351.589 675.976 -351.086 675.462 Q -350.582 674.949 -350.640 675.013 Q -350.698 675.077 -350.677 675.060 Q -350.655 675.042 -350.663 675.047 Q -350.670 675.052 -350.668 675.050 Q -350.665 675.049 -350.666 675.047 Q -350.666 675.047 -350.671 675.171 Q -350.675 675.296 -350.667 675.201 Q -350.660 675.105 -350.617 674.931 Q -350.574 674.757 -350.471 673.902 Q -350.368 673.046 -350.415 673.542 Q -350.461 674.038 -350.428 672.381 Q -350.394 670.725 -350.529 666.814 Q -351.209 666.619 -351.032 666.688 Q -352.507 666.688 -352.101 666.688 Q -353.712 666.898 -353.233 666.845 Q -354.136 666.776 -355.780 667.787 Q -357.424 668.799 -358.466 669.028 Q -359.509 669.257 -359.648 669.234 Q -359.788 669.210 -361.058 669.135 Q -362.327 669.059 -362.007 669.078 Q -362.007 669.015 -362.007 668.953 Q -362.301 668.953 -361.378 668.953 "></path>
    <path id="STROKE_6da3d8b9-e0c6-4bbb-8d84-d71d59c925cd" opacity="1.000" fill="none" stroke="#000000" stroke-width="1.000" stroke-opacity="1.000" stroke-linecap="round" stroke-linejoin="round" d="M -353.139 676.436 Q -353.170 676.436 -353.265 676.436 Q -353.301 675.786 -353.232 678.211 Q -353.163 680.636 -353.194 681.858 Q -353.225 683.081 -353.514 684.556 Q -353.803 686.031 -353.705 686.059 Q -353.705 686.647 -353.705 687.442 Q -352.499 687.442 -352.887 687.442 Q -351.646 687.216 -350.842 686.947 Q -350.038 686.678 -349.183 686.358 Q -348.327 686.039 -347.646 685.914 Q -346.965 685.790 -346.330 685.599 Q -345.696 685.407 -345.148 685.243 Q -344.601 685.079 -344.225 684.947 Q -343.850 684.814 -343.748 684.765 Q -343.646 684.715 -344.048 684.946 Q -344.451 685.177 -340.057 683.166 Q -340.057 682.524 -340.057 682.663 Q -340.119 682.220 -340.152 682.222 Q -340.293 681.612 -340.287 681.687 Q -340.281 681.761 -340.265 681.758 Q -340.249 681.755 -340.385 681.046 Q -340.520 680.336 -340.690 679.680 Q -340.859 679.024 -340.889 678.867 Q -340.919 678.710 -340.895 678.806 Q -340.870 678.902 -340.872 678.882 Q -340.874 678.862 -341.042 678.358 Q -341.211 677.853 -341.442 677.249 Q -341.673 676.644 -341.686 676.598 Q -341.699 676.552 -341.746 676.473 Q -341.794 676.394 -341.673 676.501 Q -341.553 676.608 -341.800 676.175 Q -342.047 675.743 -342.572 675.129 Q -343.097 674.516 -343.108 674.613 Q -343.171 674.613 -343.297 674.613 Q -343.328 674.550 -343.328 674.487 Q -344.036 674.194 -344.020 674.235 Q -345.413 674.235 -345.026 674.235 Q -346.377 674.235 -346.032 674.235 Q -347.023 674.256 -347.039 674.330 Q -346.374 674.063 -350.843 675.619 Q -350.501 675.897 -351.441 675.116 "></path>
    <path id="STROKE_ea112a75-2ec2-4cee-8deb-61db0a2ec0d1" opacity="1.000" fill="none" stroke="#000000" stroke-width="1.000" stroke-opacity="1.000" stroke-linecap="round" stroke-linejoin="round" d="M -344.272 665.242 Q -344.272 664.866 -344.272 666.240 Q -344.272 667.613 -344.267 668.910 Q -344.262 670.206 -344.282 670.642 Q -344.303 671.078 -344.287 672.602 Q -344.272 674.125 -344.146 675.430 Q -344.083 675.430 -344.020 675.430 Q -344.020 674.189 -344.020 674.581 Q -344.020 673.170 -344.020 673.543 Q -344.020 672.484 -344.020 672.411 "></path>
    <path id="STROKE_bd73a749-bb37-42de-8451-f126cd45e106" opacity="1.000" fill="none" stroke="#000000" stroke-width="1.000" stroke-opacity="1.000" stroke-linecap="round" stroke-linejoin="round" d="M -344.083 665.870 Q -344.122 665.908 -343.957 664.990 Q -344.523 664.987 -342.154 664.451 Q -339.784 663.916 -336.410 663.984 Q -336.410 665.114 -336.410 664.707 Q -336.410 666.169 -336.410 665.714 Q -336.410 666.870 -336.410 666.688 Q -336.410 668.039 -336.410 667.695 Q -336.410 668.684 -336.410 668.717 Q -336.410 668.749 -336.387 669.040 Q -336.363 669.331 -336.406 669.270 Q -336.448 669.210 -336.420 671.124 Q -336.392 673.038 -336.033 675.619 Q -337.252 675.619 -337.109 675.619 Q -336.965 675.619 -337.152 675.611 Q -337.339 675.604 -337.616 675.632 Q -337.894 675.660 -338.562 675.495 Q -339.230 675.330 -339.060 675.385 Q -338.889 675.441 -339.939 675.206 Q -340.990 674.971 -341.564 674.837 Q -342.139 674.703 -342.097 674.687 Q -342.054 674.671 -342.028 674.680 Q -342.001 674.688 -342.260 674.614 Q -342.518 674.540 -343.014 674.424 L -343.014 674.361 Q -343.259 674.282 -342.809 674.428 Q -342.359 674.574 -340.804 674.504 Q -339.249 674.435 -338.514 674.159 Q -337.779 673.884 -337.390 673.729 Q -337.000 673.575 -336.096 673.166 "></path>
    <path id="STROKE_49ab30e4-623d-4fd8-a6da-74e495c4c280" opacity="1.000" fill="none" stroke="#000000" stroke-width="1.000" stroke-opacity="1.000" stroke-linecap="round" stroke-linejoin="round" d="M -340.624 680.273 Q -339.783 681.061 -340.058 680.807 Q -339.501 682.157 -339.680 681.751 Q -339.674 681.712 -339.566 682.270 Q -339.458 682.828 -339.480 683.216 Q -339.502 683.604 -339.503 683.475 Q -339.503 683.347 -339.493 683.760 Q -339.482 684.174 -339.469 684.867 Q -339.457 685.561 -339.538 686.195 Q -339.620 686.829 -339.694 687.247 Q -339.768 687.666 -339.740 687.615 Q -339.712 687.565 -339.738 687.617 Q -339.765 687.670 -339.753 687.841 Q -339.740 688.011 -339.738 687.846 Q -339.737 687.680 -339.806 688.643 Q -339.876 689.605 -339.876 689.756 Q -339.875 689.907 -339.869 689.864 Q -339.869 689.927 -339.869 690.210 Q -338.436 690.210 -338.925 690.210 Q -338.461 690.156 -337.917 689.876 Q -337.373 689.597 -336.680 689.364 Q -335.986 689.131 -335.490 688.963 Q -334.994 688.795 -335.046 688.820 Q -335.097 688.844 -334.860 688.681 Q -334.623 688.518 -333.300 687.982 Q -331.977 687.446 -331.184 687.185 Q -330.391 686.924 -330.235 686.810 Q -330.080 686.696 -330.102 686.628 Q -330.123 686.559 -330.061 686.527 Q -329.999 686.494 -329.970 686.514 Q -329.940 686.534 -329.698 685.856 Q -329.455 685.177 -329.347 684.809 Q -329.240 684.440 -329.264 684.456 Q -329.289 684.471 -329.281 684.492 Q -329.273 684.514 -329.130 683.613 Q -328.987 682.712 -328.989 682.626 Q -328.992 682.541 -328.993 682.500 Q -328.995 682.459 -328.978 682.610 Q -328.962 682.762 -329.052 680.021 Q -329.083 680.021 -329.115 680.021 Q -329.115 679.958 -329.146 679.895 L -329.178 679.895 Q -329.178 679.832 -329.178 679.770 Q -330.116 679.770 -330.027 679.770 Q -331.387 680.064 -330.970 679.990 Q -330.676 679.827 -331.402 679.986 Q -332.127 680.144 -333.930 681.180 Q -335.734 682.215 -340.057 682.914 Q -340.057 682.609 -340.057 682.640 Q -340.057 682.671 -340.057 682.675 Q -340.057 682.679 -340.057 682.653 Q -340.057 682.628 -340.057 682.537 "></path>
  </g>
</svg>